  0
SECTION
  2
HEADER
  9
$ACADVER
  1
AC1009
  9
$DWGCODEPAGE
  3
ANSI_1252
  9
$INSBASE
 10
0.0
 20
0.0
 30
0.0
  9
$EXTMIN
 10
0.0
 20
0.0
 30
0.0
  9
$EXTMAX
 10
450.0
 20
280.0
 30
0.0
  9
$LIMMIN
 10
0.0
 20
0.0
  9
$LIMMAX
 10
420.0
 20
297.0
  9
$ORTHOMODE
 70
0
  9
$REGENMODE
 70
1
  9
$FILLMODE
 70
1
  9
$DRAGMODE
 70
2
  9
$QTEXTMODE
 70
0
  9
$MIRRTEXT
 70
1
  9
$OSMODE
 70
20583
  9
$LTSCALE
 40
1.0
  9
$ATTMODE
 70
1
  9
$TEXTSIZE
 40
2.5
  9
$TRACEWID
 40
1.0
  9
$TEXTSTYLE
  7
Standard
  9
$CLAYER
  8
0
  9
$CELTYPE
  6
ByLayer
  9
$CECOLOR
 62
256
  9
$DIMSCALE
 40
1.0
  9
$DIMASZ
 40
2.5
  9
$DIMEXO
 40
0.625
  9
$DIMDLI
 40
3.75
  9
$DIMRND
 40
0.0
  9
$DIMDLE
 40
0.0
  9
$DIMEXE
 40
1.25
  9
$DIMTP
 40
0.0
  9
$DIMTM
 40
0.0
  9
$DIMTXT
 40
2.5
  9
$DIMCEN
 40
2.5
  9
$DIMTSZ
 40
0.0
  9
$DIMTOL
 70
0
  9
$DIMLIM
 70
0
  9
$DIMTIH
 70
0
  9
$DIMTOH
 70
0
  9
$DIMSE1
 70
0
  9
$DIMSE2
 70
0
  9
$DIMTAD
 70
1
  9
$DIMZIN
 70
8
  9
$DIMBLK
  1

  9
$DIMASO
 70
1
  9
$DIMSHO
 70
1
  9
$DIMPOST
  1

  9
$DIMAPOST
  1

  9
$DIMALT
 70
0
  9
$DIMALTD
 70
3
  9
$DIMALTF
 40
0.03937007874
  9
$DIMLFAC
 40
1.0
  9
$DIMTOFL
 70
1
  9
$DIMTVP
 40
0.0
  9
$DIMTIX
 70
0
  9
$DIMSOXD
 70
0
  9
$DIMSAH
 70
0
  9
$DIMBLK1
  1

  9
$DIMBLK2
  1

  9
$DIMSTYLE
  2
ISO-25
  9
$DIMCLRD
 70
0
  9
$DIMCLRE
 70
0
  9
$DIMCLRT
 70
0
  9
$DIMTFAC
 40
1.0
  9
$DIMGAP
 40
0.625
  9
$COORDS
 70
1
  9
$ATTDIA
 70
0
  9
$ATTREQ
 70
1
  9
$HANDLING
 70
1
  9
$LUNITS
 70
2
  9
$LUPREC
 70
4
  9
$SKETCHINC
 40
1.0
  9
$FILLETRAD
 40
10.0
  9
$AUNITS
 70
0
  9
$AUPREC
 70
2
  9
$MENU
  1
.
  9
$ELEVATION
 40
0.0
  9
$PELEVATION
 40
0.0
  9
$THICKNESS
 40
0.0
  9
$LIMCHECK
 70
0
  9
$CHAMFERA
 40
0.0
  9
$CHAMFERB
 40
0.0
  9
$SKPOLY
 70
0
  9
$TDCREATE
 40
2461226.617037037
  9
$TDUPDATE
 40
2461226.617037037
  9
$TDINDWG
 40
0.0
  9
$TDUSRTIMER
 40
0.0
  9
$USRTIMER
 70
1
  9
$ANGBASE
 50
0.0
  9
$ANGDIR
 70
0
  9
$PDMODE
 70
0
  9
$PDSIZE
 40
0.0
  9
$PLINEWID
 40
0.0
  9
$SPLFRAME
 70
0
  9
$SPLINETYPE
 70
6
  9
$SPLINESEGS
 70
8
  9
$HANDSEED
  5
B1
  9
$SURFTAB1
 70
6
  9
$SURFTAB2
 70
6
  9
$SURFTYPE
 70
6
  9
$SURFU
 70
6
  9
$SURFV
 70
6
  9
$UCSNAME
  2

  9
$UCSORG
 10
0.0
 20
0.0
 30
0.0
  9
$UCSXDIR
 10
1.0
 20
0.0
 30
0.0
  9
$UCSYDIR
 10
0.0
 20
1.0
 30
0.0
  9
$PUCSNAME
  2

  9
$PUCSORG
 10
0.0
 20
0.0
 30
0.0
  9
$PUCSXDIR
 10
1.0
 20
0.0
 30
0.0
  9
$PUCSYDIR
 10
0.0
 20
1.0
 30
0.0
  9
$USERI1
 70
0
  9
$USERI2
 70
0
  9
$USERI3
 70
0
  9
$USERI4
 70
0
  9
$USERI5
 70
0
  9
$USERR1
 40
0.0
  9
$USERR2
 40
0.0
  9
$USERR3
 40
0.0
  9
$USERR4
 40
0.0
  9
$USERR5
 40
0.0
  9
$WORLDVIEW
 70
1
  9
$SHADEDGE
 70
3
  9
$SHADEDIF
 70
70
  9
$TILEMODE
 70
1
  9
$MAXACTVP
 70
64
  9
$PLIMCHECK
 70
0
  9
$PEXTMIN
 10
1e+20
 20
1e+20
 30
1e+20
  9
$PEXTMAX
 10
-1e+20
 20
-1e+20
 30
-1e+20
  9
$PLIMMIN
 10
0.0
 20
0.0
  9
$PLIMMAX
 10
420.0
 20
297.0
  9
$UNITMODE
 70
0
  9
$VISRETAIN
 70
1
  9
$PLINEGEN
 70
0
  9
$PSLTSCALE
 70
1
  0
ENDSEC
  0
SECTION
  2
TABLES
  0
TABLE
  2
VPORT
 70
1
  0
VPORT
  5
23
  2
*Active
 70
0
 10
0.0
 20
0.0
 11
1.0
 21
1.0
 12
0.0
 22
0.0
 13
0.0
 23
0.0
 14
0.5
 24
0.5
 15
0.5
 25
0.5
 16
0.0
 26
0.0
 36
1.0
 17
0.0
 27
0.0
 37
0.0
 40
1000.0
 41
1.34
 42
50.0
 43
0.0
 44
0.0
 50
0.0
 51
0.0
 71
0
 72
1000
 73
1
 74
3
 75
0
 76
0
 77
0
 78
0
  0
ENDTAB
  0
TABLE
  2
LTYPE
 70
3
  0
LTYPE
  5
24
  2
ByBlock
 70
0
  3

 72
65
 73
0
 40
0.0
  0
LTYPE
  5
25
  2
ByLayer
 70
0
  3

 72
65
 73
0
 40
0.0
  0
LTYPE
  5
26
  2
Continuous
 70
0
  3

 72
65
 73
0
 40
0.0
  0
ENDTAB
  0
TABLE
  2
LAYER
 70
7
  0
LAYER
  5
27
  2
0
 70
0
 62
7
  6
Continuous
  0
LAYER
  5
28
  2
Defpoints
 70
0
 62
7
  6
Continuous
  0
LAYER
  5
2D
  2
WIRES
 70
0
 62
7
  6
Continuous
  0
LAYER
  5
2E
  2
TEXT
 70
0
 62
3
  6
Continuous
  0
LAYER
  5
2F
  2
DASHB
 70
0
 62
5
  6
DASHED
  0
LAYER
  5
30
  2
SYMBOL
 70
0
 62
1
  6
Continuous
  0
LAYER
  5
31
  2
GROUND
 70
0
 62
2
  6
Continuous
  0
ENDTAB
  0
TABLE
  2
STYLE
 70
1
  0
STYLE
  5
29
  2
Standard
 70
0
 40
0.0
 41
1.0
 50
0.0
 71
0
 42
2.5
  3
txt
  4

  0
ENDTAB
  0
TABLE
  2
VIEW
 70
0
  0
ENDTAB
  0
TABLE
  2
UCS
 70
0
  0
ENDTAB
  0
TABLE
  2
APPID
 70
3
  0
APPID
  5
2A
  2
ACAD
 70
0
  0
APPID
  5
AF
  2
HATCHBACKGROUNDCOLOR
 70
0
  0
APPID
  5
B0
  2
EZDXF
 70
0
  0
ENDTAB
  0
TABLE
  2
DIMSTYLE
 70
1
  0
DIMSTYLE
105
2B
  2
Standard
 70
0
  3

  4

  5

  6

  7

 40
1.0
 41
2.5
 42
0.625
 43
3.75
 44
1.25
 45
0.0
 46
0.0
 47
0.0
 48
0.0
140
2.5
141
2.5
142
0.0
143
0.03937007874
144
1.0
145
0.0
146
1.0
147
0.625
 71
0
 72
0
 73
0
 74
0
 75
0
 76
0
 77
1
 78
8
170
0
171
3
172
1
173
0
174
0
175
0
176
0
177
0
178
0
  0
ENDTAB
  0
ENDSEC
  0
SECTION
  2
BLOCKS
  0
BLOCK
  5
18
  8
0
  2
$Model_Space
 70
0
 10
0.0
 20
0.0
 30
0.0
  3
$Model_Space
  1

1001
EZDXF
1000
CREATED_BY_EZDXF
1000
1.4.4 @ 2026-07-04T06:48:32.896066+00:00
1000
WRITTEN_BY_EZDXF
1000
1.4.4 @ 2026-07-04T06:48:32.900065+00:00
  0
ENDBLK
  5
19
  8
0
  0
BLOCK
  5
1C
  8
0
  2
$Paper_Space
 70
0
 10
0.0
 20
0.0
 30
0.0
  3
$Paper_Space
  1

  0
ENDBLK
  5
1D
  8
0
  0
ENDSEC
  0
SECTION
  2
ENTITIES
  0
LINE
  5
32
  8
WIRES
 10
0.0
 20
240.0
 30
0.0
 11
420.0
 21
240.0
 31
0.0
  0
LINE
  5
33
  8
WIRES
 10
0.0
 20
30.0
 30
0.0
 11
420.0
 21
30.0
 31
0.0
  0
LINE
  5
34
  8
SYMBOL
 10
30.0
 20
134.0
 30
0.0
 11
30.0
 21
146.0
 31
0.0
  0
LINE
  5
35
  8
SYMBOL
 10
30.0
 20
134.0
 30
0.0
 11
20.0
 21
134.0
 31
0.0
  0
LINE
  5
36
  8
SYMBOL
 10
30.0
 20
146.0
 30
0.0
 11
20.0
 21
146.0
 31
0.0
  0
TEXT
  5
37
  8
TEXT
 10
15.0
 20
155.0
 30
0.0
 40
3.5
  1
~220V
 11
15.0
 21
155.0
 31
0.0
  0
LINE
  5
38
  8
WIRES
 10
30.0
 20
134.0
 30
0.0
 11
30.0
 21
240.0
 31
0.0
  0
LINE
  5
39
  8
WIRES
 10
30.0
 20
146.0
 30
0.0
 11
30.0
 21
30.0
 31
0.0
  0
LINE
  5
3A
  8
GROUND
 10
30.0
 20
22.0
 30
0.0
 11
30.0
 21
14.0
 31
0.0
  0
LINE
  5
3B
  8
GROUND
 10
24.0
 20
14.0
 30
0.0
 11
36.0
 21
14.0
 31
0.0
  0
LINE
  5
3C
  8
GROUND
 10
26.0
 20
11.0
 30
0.0
 11
34.0
 21
11.0
 31
0.0
  0
LINE
  5
3D
  8
GROUND
 10
28.0
 20
8.0
 30
0.0
 11
32.0
 21
8.0
 31
0.0
  0
LINE
  5
3E
  8
WIRES
 10
30.0
 20
22.0
 30
0.0
 11
30.0
 21
30.0
 31
0.0
  0
LINE
  5
3F
  8
WIRES
 10
85.0
 20
240.0
 30
0.0
 11
85.0
 21
210.0
 31
0.0
  0
LINE
  5
40
  8
SYMBOL
 10
85.0
 20
199.0
 30
0.0
 11
85.0
 21
211.0
 31
0.0
  0
LINE
  5
41
  8
SYMBOL
 10
85.0
 20
211.0
 30
0.0
 11
93.0
 21
203.0
 31
0.0
  0
TEXT
  5
42
  8
TEXT
 10
65.0
 20
198.0
 30
0.0
 40
3.5
  1
\U+706F\U+5F00\U+5173
 11
65.0
 21
198.0
 31
0.0
  0
LINE
  5
43
  8
WIRES
 10
85.0
 20
199.0
 30
0.0
 11
85.0
 21
150.0
 31
0.0
  0
CIRCLE
  5
44
  8
SYMBOL
 10
85.0
 20
135.0
 30
0.0
 40
9.0
  0
LINE
  5
45
  8
SYMBOL
 10
78.7
 20
128.7
 30
0.0
 11
91.3
 21
141.3
 31
0.0
  0
LINE
  5
46
  8
SYMBOL
 10
78.7
 20
141.3
 30
0.0
 11
91.3
 21
128.7
 31
0.0
  0
TEXT
  5
47
  8
TEXT
 10
95.0
 20
125.0
 30
0.0
 40
3.5
  1
EL
 11
95.0
 21
125.0
 31
0.0
  0
LINE
  5
48
  8
WIRES
 10
85.0
 20
126.0
 30
0.0
 11
85.0
 21
30.0
 31
0.0
  0
LINE
  5
49
  8
WIRES
 10
130.0
 20
240.0
 30
0.0
 11
130.0
 21
210.0
 31
0.0
  0
LINE
  5
4A
  8
SYMBOL
 10
123.0
 20
202.0
 30
0.0
 11
126.5
 21
188.0
 31
0.0
  0
LINE
  5
4B
  8
SYMBOL
 10
126.5
 20
188.0
 30
0.0
 11
130.0
 21
202.0
 31
0.0
  0
LINE
  5
4C
  8
SYMBOL
 10
130.0
 20
202.0
 30
0.0
 11
133.5
 21
188.0
 31
0.0
  0
LINE
  5
4D
  8
SYMBOL
 10
133.5
 20
188.0
 30
0.0
 11
137.0
 21
202.0
 31
0.0
  0
TEXT
  5
4E
  8
TEXT
 10
146.0
 20
190.0
 30
0.0
 40
2.8
  1
DS\U+52A0\U+70ED\U+5668
 11
146.0
 21
190.0
 31
0.0
  0
LINE
  5
4F
  8
WIRES
 10
130.0
 20
186.0
 30
0.0
 11
130.0
 21
180.0
 31
0.0
  0
LINE
  5
50
  8
SYMBOL
 10
130.0
 20
169.0
 30
0.0
 11
130.0
 21
181.0
 31
0.0
  0
LINE
  5
51
  8
SYMBOL
 10
130.0
 20
181.0
 30
0.0
 11
138.0
 21
173.0
 31
0.0
  0
TEXT
  5
52
  8
TEXT
 10
146.0
 20
172.0
 30
0.0
 40
3.5
  1
SB2
 11
146.0
 21
172.0
 31
0.0
  0
LINE
  5
53
  8
WIRES
 10
130.0
 20
169.0
 30
0.0
 11
130.0
 21
120.0
 31
0.0
  0
LINE
  5
54
  8
SYMBOL
 10
123.0
 20
112.0
 30
0.0
 11
126.5
 21
98.0
 31
0.0
  0
LINE
  5
55
  8
SYMBOL
 10
126.5
 20
98.0
 30
0.0
 11
130.0
 21
112.0
 31
0.0
  0
LINE
  5
56
  8
SYMBOL
 10
130.0
 20
112.0
 30
0.0
 11
133.5
 21
98.0
 31
0.0
  0
LINE
  5
57
  8
SYMBOL
 10
133.5
 20
98.0
 30
0.0
 11
137.0
 21
112.0
 31
0.0
  0
TEXT
  5
58
  8
TEXT
 10
146.0
 20
100.0
 30
0.0
 40
2.8
  1
D\U+52A0\U+70ED\U+5668
 11
146.0
 21
100.0
 31
0.0
  0
LINE
  5
59
  8
WIRES
 10
130.0
 20
96.0
 30
0.0
 11
130.0
 21
30.0
 31
0.0
  0
LINE
  5
5A
  8
DASHB
 10
185.0
 20
160.0
 30
0.0
 11
260.0
 21
160.0
 31
0.0
  0
LINE
  5
5B
  8
DASHB
 10
260.0
 20
160.0
 30
0.0
 11
260.0
 21
230.0
 31
0.0
  0
LINE
  5
5C
  8
DASHB
 10
260.0
 20
230.0
 30
0.0
 11
185.0
 21
230.0
 31
0.0
  0
LINE
  5
5D
  8
DASHB
 10
185.0
 20
230.0
 30
0.0
 11
185.0
 21
160.0
 31
0.0
  0
TEXT
  5
5E
  8
TEXT
 10
190.0
 20
232.0
 30
0.0
 40
3.5
  1
\U+5316\U+971C\U+5F00\U+5173\U+677F
 11
190.0
 21
232.0
 31
0.0
  0
LINE
  5
5F
  8
WIRES
 10
195.0
 20
240.0
 30
0.0
 11
195.0
 21
230.0
 31
0.0
  0
LINE
  5
60
  8
WIRES
 10
195.0
 20
225.0
 30
0.0
 11
205.0
 21
225.0
 31
0.0
  0
LINE
  5
61
  8
SYMBOL
 10
205.0
 20
225.0
 30
0.0
 11
213.0
 21
217.0
 31
0.0
  0
LINE
  5
62
  8
WIRES
 10
213.0
 20
217.0
 30
0.0
 11
225.0
 21
217.0
 31
0.0
  0
LINE
  5
63
  8
WIRES
 10
225.0
 20
217.0
 30
0.0
 11
225.0
 21
225.0
 31
0.0
  0
LINE
  5
64
  8
WIRES
 10
225.0
 20
225.0
 30
0.0
 11
235.0
 21
225.0
 31
0.0
  0
LINE
  5
65
  8
WIRES
 10
195.0
 20
195.0
 30
0.0
 11
205.0
 21
195.0
 31
0.0
  0
LINE
  5
66
  8
SYMBOL
 10
205.0
 20
195.0
 30
0.0
 11
213.0
 21
187.0
 31
0.0
  0
LINE
  5
67
  8
WIRES
 10
213.0
 20
187.0
 30
0.0
 11
225.0
 21
187.0
 31
0.0
  0
LINE
  5
68
  8
WIRES
 10
225.0
 20
187.0
 30
0.0
 11
225.0
 21
195.0
 31
0.0
  0
LINE
  5
69
  8
WIRES
 10
225.0
 20
195.0
 30
0.0
 11
235.0
 21
195.0
 31
0.0
  0
LINE
  5
6A
  8
WIRES
 10
195.0
 20
175.0
 30
0.0
 11
205.0
 21
175.0
 31
0.0
  0
LINE
  5
6B
  8
SYMBOL
 10
205.0
 20
175.0
 30
0.0
 11
213.0
 21
167.0
 31
0.0
  0
LINE
  5
6C
  8
WIRES
 10
213.0
 20
167.0
 30
0.0
 11
225.0
 21
167.0
 31
0.0
  0
LINE
  5
6D
  8
WIRES
 10
225.0
 20
167.0
 30
0.0
 11
225.0
 21
175.0
 31
0.0
  0
LINE
  5
6E
  8
WIRES
 10
210.0
 20
160.0
 30
0.0
 11
210.0
 21
145.0
 31
0.0
  0
LINE
  5
6F
  8
SYMBOL
 10
210.0
 20
132.0
 30
0.0
 11
210.0
 21
144.0
 31
0.0
  0
LINE
  5
70
  8
SYMBOL
 10
210.0
 20
144.0
 30
0.0
 11
218.0
 21
136.0
 31
0.0
  0
TEXT
  5
71
  8
TEXT
 10
183.0
 20
132.0
 30
0.0
 40
2.8
  1
\U+9632\U+971C\U+52A0\U+70ED\U+5668\U+5F00\U+5173
 11
183.0
 21
132.0
 31
0.0
  0
TEXT
  5
72
  8
TEXT
 10
188.0
 20
126.0
 30
0.0
 40
3.5
  1
SB1
 11
188.0
 21
126.0
 31
0.0
  0
LINE
  5
73
  8
WIRES
 10
210.0
 20
132.0
 30
0.0
 11
210.0
 21
105.0
 31
0.0
  0
LINE
  5
74
  8
SYMBOL
 10
203.0
 20
97.0
 30
0.0
 11
206.5
 21
83.0
 31
0.0
  0
LINE
  5
75
  8
SYMBOL
 10
206.5
 20
83.0
 30
0.0
 11
210.0
 21
97.0
 31
0.0
  0
LINE
  5
76
  8
SYMBOL
 10
210.0
 20
97.0
 30
0.0
 11
213.5
 21
83.0
 31
0.0
  0
LINE
  5
77
  8
SYMBOL
 10
213.5
 20
83.0
 30
0.0
 11
217.0
 21
97.0
 31
0.0
  0
TEXT
  5
78
  8
TEXT
 10
226.0
 20
85.0
 30
0.0
 40
2.8
  1
\U+9632\U+971C\U+52A0\U+70ED\U+5668
 11
226.0
 21
85.0
 31
0.0
  0
LINE
  5
79
  8
WIRES
 10
210.0
 20
81.0
 30
0.0
 11
210.0
 21
30.0
 31
0.0
  0
LINE
  5
7A
  8
WIRES
 10
250.0
 20
240.0
 30
0.0
 11
250.0
 21
230.0
 31
0.0
  0
LINE
  5
7B
  8
SYMBOL
 10
243.0
 20
222.0
 30
0.0
 11
246.5
 21
208.0
 31
0.0
  0
LINE
  5
7C
  8
SYMBOL
 10
246.5
 20
208.0
 30
0.0
 11
250.0
 21
222.0
 31
0.0
  0
LINE
  5
7D
  8
SYMBOL
 10
250.0
 20
222.0
 30
0.0
 11
253.5
 21
208.0
 31
0.0
  0
LINE
  5
7E
  8
SYMBOL
 10
253.5
 20
208.0
 30
0.0
 11
257.0
 21
222.0
 31
0.0
  0
TEXT
  5
7F
  8
TEXT
 10
266.0
 20
210.0
 30
0.0
 40
2.8
  1
IL\U+52A0\U+70ED\U+5668
 11
266.0
 21
210.0
 31
0.0
  0
LINE
  5
80
  8
WIRES
 10
250.0
 20
206.0
 30
0.0
 11
250.0
 21
30.0
 31
0.0
  0
LINE
  5
81
  8
WIRES
 10
285.0
 20
240.0
 30
0.0
 11
285.0
 21
215.0
 31
0.0
  0
LINE
  5
82
  8
SYMBOL
 10
278.0
 20
207.0
 30
0.0
 11
281.5
 21
193.0
 31
0.0
  0
LINE
  5
83
  8
SYMBOL
 10
281.5
 20
193.0
 30
0.0
 11
285.0
 21
207.0
 31
0.0
  0
LINE
  5
84
  8
SYMBOL
 10
285.0
 20
207.0
 30
0.0
 11
288.5
 21
193.0
 31
0.0
  0
LINE
  5
85
  8
SYMBOL
 10
288.5
 20
193.0
 30
0.0
 11
292.0
 21
207.0
 31
0.0
  0
TEXT
  5
86
  8
TEXT
 10
301.0
 20
195.0
 30
0.0
 40
2.8
  1
RP\U+52A0\U+70ED\U+5668
 11
301.0
 21
195.0
 31
0.0
  0
LINE
  5
87
  8
WIRES
 10
285.0
 20
191.0
 30
0.0
 11
285.0
 21
30.0
 31
0.0
  0
LINE
  5
88
  8
DASHB
 10
310.0
 20
170.0
 30
0.0
 11
370.0
 21
170.0
 31
0.0
  0
LINE
  5
89
  8
DASHB
 10
370.0
 20
170.0
 30
0.0
 11
370.0
 21
230.0
 31
0.0
  0
LINE
  5
8A
  8
DASHB
 10
370.0
 20
230.0
 30
0.0
 11
310.0
 21
230.0
 31
0.0
  0
LINE
  5
8B
  8
DASHB
 10
310.0
 20
230.0
 30
0.0
 11
310.0
 21
170.0
 31
0.0
  0
TEXT
  5
8C
  8
TEXT
 10
315.0
 20
232.0
 30
0.0
 40
3.5
  1
\U+6E29\U+63A7\U+5668
 11
315.0
 21
232.0
 31
0.0
  0
LINE
  5
8D
  8
WIRES
 10
315.0
 20
240.0
 30
0.0
 11
315.0
 21
230.0
 31
0.0
  0
LINE
  5
8E
  8
WIRES
 10
315.0
 20
220.0
 30
0.0
 11
325.0
 21
220.0
 31
0.0
  0
LINE
  5
8F
  8
SYMBOL
 10
325.0
 20
220.0
 30
0.0
 11
333.0
 21
212.0
 31
0.0
  0
LINE
  5
90
  8
WIRES
 10
333.0
 20
212.0
 30
0.0
 11
345.0
 21
212.0
 31
0.0
  0
LINE
  5
91
  8
WIRES
 10
345.0
 20
212.0
 30
0.0
 11
345.0
 21
220.0
 31
0.0
  0
LINE
  5
92
  8
WIRES
 10
345.0
 20
220.0
 30
0.0
 11
360.0
 21
220.0
 31
0.0
  0
LINE
  5
93
  8
WIRES
 10
340.0
 20
170.0
 30
0.0
 11
340.0
 21
155.0
 31
0.0
  0
TEXT
  5
94
  8
TEXT
 10
295.0
 20
147.0
 30
0.0
 40
2.8
  1
\U+542F\U+52A8\U+8FC7\U+8F7D\U+4FDD\U+62A4\U+7EE7\U+7535\U+5668
 11
295.0
 21
147.0
 31
0.0
  0
LINE
  5
95
  8
WIRES
 10
340.0
 20
145.0
 30
0.0
 11
348.0
 21
145.0
 31
0.0
  0
LINE
  5
96
  8
SYMBOL
 10
348.0
 20
145.0
 30
0.0
 11
354.0
 21
139.0
 31
0.0
  0
LINE
  5
97
  8
WIRES
 10
354.0
 20
139.0
 30
0.0
 11
365.0
 21
139.0
 31
0.0
  0
LINE
  5
98
  8
WIRES
 10
365.0
 20
139.0
 30
0.0
 11
365.0
 21
145.0
 31
0.0
  0
LINE
  5
99
  8
WIRES
 10
365.0
 20
145.0
 30
0.0
 11
375.0
 21
145.0
 31
0.0
  0
LINE
  5
9A
  8
WIRES
 10
375.0
 20
145.0
 30
0.0
 11
375.0
 21
110.0
 31
0.0
  0
LINE
  5
9B
  8
WIRES
 10
340.0
 20
145.0
 30
0.0
 11
340.0
 21
110.0
 31
0.0
  0
LINE
  5
9C
  8
SYMBOL
 10
335.0
 20
100.0
 30
0.0
 11
345.0
 21
100.0
 31
0.0
  0
LINE
  5
9D
  8
SYMBOL
 10
335.0
 20
94.0
 30
0.0
 11
345.0
 21
94.0
 31
0.0
  0
TEXT
  5
9E
  8
TEXT
 10
350.0
 20
92.0
 30
0.0
 40
3.5
  1
C
 11
350.0
 21
92.0
 31
0.0
  0
LINE
  5
9F
  8
WIRES
 10
340.0
 20
100.0
 30
0.0
 11
340.0
 21
110.0
 31
0.0
  0
LINE
  5
A0
  8
WIRES
 10
340.0
 20
94.0
 30
0.0
 11
340.0
 21
84.0
 31
0.0
  0
LINE
  5
A1
  8
WIRES
 10
375.0
 20
240.0
 30
0.0
 11
375.0
 21
110.0
 31
0.0
  0
CIRCLE
  5
A2
  8
SYMBOL
 10
375.0
 20
70.0
 30
0.0
 40
20.0
  0
TEXT
  5
A3
  8
TEXT
 10
365.0
 20
74.0
 30
0.0
 40
5.0
  1
M
 11
365.0
 21
74.0
 31
0.0
  0
TEXT
  5
A4
  8
TEXT
 10
367.0
 20
58.0
 30
0.0
 40
3.5
  1
1~
 11
367.0
 21
58.0
 31
0.0
  0
LINE
  5
A5
  8
WIRES
 10
375.0
 20
110.0
 30
0.0
 11
375.0
 21
90.0
 31
0.0
  0
LINE
  5
A6
  8
WIRES
 10
340.0
 20
87.0
 30
0.0
 11
375.0
 21
87.0
 31
0.0
  0
LINE
  5
A7
  8
WIRES
 10
375.0
 20
87.0
 30
0.0
 11
375.0
 21
90.0
 31
0.0
  0
LINE
  5
A8
  8
WIRES
 10
375.0
 20
50.0
 30
0.0
 11
375.0
 21
30.0
 31
0.0
  0
LINE
  5
A9
  8
GROUND
 10
375.0
 20
44.0
 30
0.0
 11
375.0
 21
36.0
 31
0.0
  0
LINE
  5
AA
  8
GROUND
 10
369.0
 20
36.0
 30
0.0
 11
381.0
 21
36.0
 31
0.0
  0
LINE
  5
AB
  8
GROUND
 10
371.0
 20
33.0
 30
0.0
 11
379.0
 21
33.0
 31
0.0
  0
LINE
  5
AC
  8
GROUND
 10
373.0
 20
30.0
 30
0.0
 11
377.0
 21
30.0
 31
0.0
  0
LINE
  5
AD
  8
WIRES
 10
375.0
 20
44.0
 30
0.0
 11
375.0
 21
50.0
 31
0.0
  0
TEXT
  5
AE
  8
TEXT
 10
155.0
 20
8.0
 30
0.0
 40
5.0
  1
\U+56FE14-53  \U+7535\U+51B0\U+7BB1\U+7535\U+6C14\U+7EBF\U+8DEF\U+56FE
 11
155.0
 21
8.0
 31
0.0
  0
ENDSEC
  0
EOF
