<?xml version='1.0' encoding='utf-8'?>
<svg xmlns="http://www.w3.org/2000/svg" width="420mm" height="232mm" viewBox="0 0 1000000 552381"><defs><style>.C1 {stroke: #ffffff; stroke-width: 595; stroke-opacity: 1.000; fill: none; fill-opacity: 1.000;}</style><style>.C2 {stroke: #ff0000; stroke-width: 595; stroke-opacity: 1.000; fill: none; fill-opacity: 1.000;}</style><style>.C3 {stroke: none; stroke-width: none; stroke-opacity: 1.000; fill: #00ff00; fill-opacity: 1.000;}</style><style>.C4 {stroke: #ffff00; stroke-width: 595; stroke-opacity: 1.000; fill: none; fill-opacity: 1.000;}</style><style>.C5 {stroke: #0000ff; stroke-width: 595; stroke-opacity: 1.000; fill: none; fill-opacity: 1.000;}</style></defs><rect fill="#212830" x="0" y="0" width="1000000" height="552381" fill-opacity="1.0" /><g stroke-linecap="round" stroke-linejoin="round" fill-rule="evenodd"><path d="M 29 -0 l 999942 0" class="C1" /><path d="M 29 499971 l 999942 0" class="C1" /><path d="M 71453 252366 l 0 -28570" class="C2" /><path d="M 71453 252366 l -23808 0" class="C2" /><path d="M 71453 223797 l -23808 0" class="C2" /><path d="M 42700 196863 l -1419 1424 l -2759 -1379 l -1335 1335 l -135 -140 l 1424 -1424 l 2753 1379 l 1335 -1335 l 135 140 Z M 50999 196829 l -1436 1436 l -2759 0 l -1318 1318 l 0 2630 l 5417 0 l 0 179 l -5602 0 l 0 -2877 l 1436 -1436 l 2753 0 l 1323 -1323 l 0 -1307 l -1323 -1323 l -2686 0 l -1346 1357 l -135 -135 l 1413 -1402 l 2826 0 l 1436 1436 l 0 1447 Z M 59271 196829 l -1436 1436 l -2759 0 l -1318 1318 l 0 2630 l 5417 0 l 0 179 l -5602 0 l 0 -2877 l 1436 -1436 l 2753 0 l 1323 -1323 l 0 -1307 l -1323 -1323 l -2686 0 l -1346 1357 l -135 -135 l 1413 -1402 l 2826 0 l 1436 1436 l 0 1447 Z M 66162 200962 l -1436 1430 l -1447 0 l -1436 -1430 l 0 -5580 l 1436 -1436 l 1447 0 l 1436 1436 l 0 5580 m -185 -67 l 0 -5445 l -1318 -1323 l -1312 0 l -1318 1323 l 0 5445 l 1318 1318 l 1312 0 l 1318 -1318 Z M 77181 194081 l -4116 8226 l -202 0 l -4110 -8226 l 157 -90 l 4054 8109 l 4054 -8109 l 163 90 Z" class="C3" /><path d="M 71453 252366 l 0 -252366" class="C1" /><path d="M 71453 223797 l 0 276174" class="C1" /><path d="M 71453 519018 l 0 19047" class="C4" /><path d="M 57169 538064 l 28570 0" class="C4" /><path d="M 61930 545206 l 19047 0" class="C4" /><path d="M 66692 552349 l 9523 0" class="C4" /><path d="M 71453 519018 l 0 -19047" class="C1" /><path d="M 202398 -0 l 0 71424" class="C1" /><path d="M 202398 97613 l 0 -28570" class="C2" /><path d="M 202398 69044 l 19047 19047" class="C2" /><path d="M 155500 99933 l 0 -8361 l 4307 0 l 0 8361 l -4307 0 m 718 -718 l 2871 0 l 0 -6925 l -2871 0 l 0 6925 Z M 161242 99933 l 0 -8361 l 4307 0 l 0 8361 l -4307 0 m 718 -718 l 2871 0 l 0 -6925 l -2871 0 l 0 6925 Z M 166984 99933 l 0 -8361 l 4307 0 l 0 8361 l -4307 0 m 718 -718 l 2871 0 l 0 -6925 l -2871 0 l 0 6925 Z" class="C3" /><path d="M 202398 97613 l 0 116660" class="C1" /><path d="M 223826 249985 c 0 11834 -9593 21427 -21427 21427 c -11834 0 -21427 -9593 -21427 -21427 c 0 -11834 9593 -21427 21427 -21427 c 11834 0 21427 9593 21427 21427" class="C2" /><path d="M 187399 264985 l 29998 -29998" class="C2" /><path d="M 187399 234986 l 29998 29998" class="C2" /><path d="M 233098 273816 l -5602 0 l 0 -8445 l 5602 0 l 0 179 l -5417 0 l 0 3953 l 2664 0 l 0 185 l -2664 0 l 0 3948 l 5417 0 l 0 179 Z M 241369 273816 l -5602 0 l 0 -8355 l 185 0 l 0 8176 l 5417 0 l 0 179 Z" class="C3" /><path d="M 202398 271413 l 0 228558" class="C1" /><path d="M 309535 -0 l 0 71424" class="C1" /><path d="M 292869 90471 l 8333 33331" class="C2" /><path d="M 301202 123802 l 8333 -33331" class="C2" /><path d="M 309535 90471 l 8333 33331" class="C2" /><path d="M 317868 123802 l 8333 -33331" class="C2" /><path d="M 353218 117915 l -1148 1144 l -3338 0 l 0 -144 l 1032 0 l 0 -6469 l -1032 0 l 0 -144 l 3338 0 l 1148 1148 l 0 4464 m -148 -54 l 0 -4356 l -1059 -1059 l -2104 0 l 0 6469 l 2104 0 l 1059 -1054 Z M 359861 117888 l -1175 1171 l -2261 0 l -1130 -1117 l 108 -108 l 1077 1081 l 2149 0 l 1032 -1027 l -4410 -4410 l 1175 -1175 l 2261 0 l 1126 1122 l -108 108 l -1077 -1086 l -2149 0 l -1027 1032 l 4410 4410 Z M 361436 118991 l 0 -6689 l 3445 0 l 0 6689 l -3445 0 m 574 -574 l 2297 0 l 0 -5540 l -2297 0 l 0 5540 Z M 366030 118991 l 0 -6689 l 3445 0 l 0 6689 l -3445 0 m 574 -574 l 2297 0 l 0 -5540 l -2297 0 l 0 5540 Z M 370623 118991 l 0 -6689 l 3445 0 l 0 6689 l -3445 0 m 574 -574 l 2297 0 l 0 -5540 l -2297 0 l 0 5540 Z" class="C3" /><path d="M 309535 128564 l 0 14285" class="C1" /><path d="M 309535 169038 l 0 -28570" class="C2" /><path d="M 309535 140468 l 19047 19047" class="C2" /><path d="M 354649 160454 l -1469 1464 l -2826 0 l -1413 -1396 l 135 -135 l 1346 1351 l 2686 0 l 1290 -1284 l -5512 -5512 l 1469 -1469 l 2826 0 l 1408 1402 l -135 135 l -1346 -1357 l -2686 0 l -1284 1290 l 5512 5512 Z M 362886 160488 l -1436 1430 l -4172 0 l 0 -179 l 1290 0 l 0 -8086 l -1290 0 l 0 -179 l 4172 0 l 1436 1436 l 0 1447 l -1346 1340 l 1346 1346 l 0 1447 m -185 -4206 l 0 -1307 l -1323 -1323 l -2630 0 l 0 3953 l 2630 0 l 1323 -1323 m 0 4138 l 0 -1312 l -1323 -1318 l -2630 0 l 0 3948 l 2630 0 l 1323 -1318 Z M 371157 156355 l -1436 1436 l -2759 0 l -1318 1318 l 0 2630 l 5417 0 l 0 179 l -5602 0 l 0 -2877 l 1436 -1436 l 2753 0 l 1323 -1323 l 0 -1307 l -1323 -1323 l -2686 0 l -1346 1357 l -135 -135 l 1413 -1402 l 2826 0 l 1436 1436 l 0 1447 Z" class="C3" /><path d="M 309535 169038 l 0 116660" class="C1" /><path d="M 292869 304744 l 8333 33331" class="C2" /><path d="M 301202 338076 l 8333 -33331" class="C2" /><path d="M 309535 304744 l 8333 33331" class="C2" /><path d="M 317868 338076 l 8333 -33331" class="C2" /><path d="M 353218 332188 l -1148 1144 l -3338 0 l 0 -144 l 1032 0 l 0 -6469 l -1032 0 l 0 -144 l 3338 0 l 1148 1148 l 0 4464 m -148 -54 l 0 -4356 l -1059 -1059 l -2104 0 l 0 6469 l 2104 0 l 1059 -1054 Z M 354819 333265 l 0 -6689 l 3445 0 l 0 6689 l -3445 0 m 574 -574 l 2297 0 l 0 -5540 l -2297 0 l 0 5540 Z M 359413 333265 l 0 -6689 l 3445 0 l 0 6689 l -3445 0 m 574 -574 l 2297 0 l 0 -5540 l -2297 0 l 0 5540 Z M 364006 333265 l 0 -6689 l 3445 0 l 0 6689 l -3445 0 m 574 -574 l 2297 0 l 0 -5540 l -2297 0 l 0 5540 Z" class="C3" /><path d="M 309535 342837 l 0 157134" class="C1" /><path d="M 440480 190465 l 178561 0" class="C5" /><path d="M 619041 190465 l 0 -166657" class="C5" /><path d="M 619041 23808 l -178561 0" class="C5" /><path d="M 440480 23808 l 0 166657" class="C5" /><path d="M 453101 18985 l 0 -8361 l 4307 0 l 0 8361 l -4307 0 m 718 -718 l 2871 0 l 0 -6925 l -2871 0 l 0 6925 Z M 458844 18985 l 0 -8361 l 4307 0 l 0 8361 l -4307 0 m 718 -718 l 2871 0 l 0 -6925 l -2871 0 l 0 6925 Z M 464586 18985 l 0 -8361 l 4307 0 l 0 8361 l -4307 0 m 718 -718 l 2871 0 l 0 -6925 l -2871 0 l 0 6925 Z M 470328 18985 l 0 -8361 l 4307 0 l 0 8361 l -4307 0 m 718 -718 l 2871 0 l 0 -6925 l -2871 0 l 0 6925 Z M 476070 18985 l 0 -8361 l 4307 0 l 0 8361 l -4307 0 m 718 -718 l 2871 0 l 0 -6925 l -2871 0 l 0 6925 Z" class="C3" /><path d="M 464288 -0 l 0 23808" class="C1" /><path d="M 464288 35712 l 23808 0" class="C1" /><path d="M 488096 35712 l 19047 19047" class="C2" /><path d="M 507142 54759 l 28570 0" class="C1" /><path d="M 535712 54759 l 0 -19047" class="C1" /><path d="M 535712 35712 l 23808 0" class="C1" /><path d="M 464288 107137 l 23808 0" class="C1" /><path d="M 488096 107137 l 19047 19047" class="C2" /><path d="M 507142 126183 l 28570 0" class="C1" /><path d="M 535712 126183 l 0 -19047" class="C1" /><path d="M 535712 107137 l 23808 0" class="C1" /><path d="M 464288 154753 l 23808 0" class="C1" /><path d="M 488096 154753 l 19047 19047" class="C2" /><path d="M 507142 173799 l 28570 0" class="C1" /><path d="M 535712 173799 l 0 -19047" class="C1" /><path d="M 500000 190465 l 0 35712" class="C1" /><path d="M 500000 257128 l 0 -28570" class="C2" /><path d="M 500000 228558 l 19047 19047" class="C2" /><path d="M 436292 257079 l 0 -6689 l 3445 0 l 0 6689 l -3445 0 m 574 -574 l 2297 0 l 0 -5540 l -2297 0 l 0 5540 Z M 440886 257079 l 0 -6689 l 3445 0 l 0 6689 l -3445 0 m 574 -574 l 2297 0 l 0 -5540 l -2297 0 l 0 5540 Z M 445480 257079 l 0 -6689 l 3445 0 l 0 6689 l -3445 0 m 574 -574 l 2297 0 l 0 -5540 l -2297 0 l 0 5540 Z M 450073 257079 l 0 -6689 l 3445 0 l 0 6689 l -3445 0 m 574 -574 l 2297 0 l 0 -5540 l -2297 0 l 0 5540 Z M 454667 257079 l 0 -6689 l 3445 0 l 0 6689 l -3445 0 m 574 -574 l 2297 0 l 0 -5540 l -2297 0 l 0 5540 Z M 459261 257079 l 0 -6689 l 3445 0 l 0 6689 l -3445 0 m 574 -574 l 2297 0 l 0 -5540 l -2297 0 l 0 5540 Z M 463855 257079 l 0 -6689 l 3445 0 l 0 6689 l -3445 0 m 574 -574 l 2297 0 l 0 -5540 l -2297 0 l 0 5540 Z" class="C3" /><path d="M 454643 269972 l -1469 1464 l -2826 0 l -1413 -1396 l 135 -135 l 1346 1351 l 2686 0 l 1290 -1284 l -5512 -5512 l 1469 -1469 l 2826 0 l 1408 1402 l -135 135 l -1346 -1357 l -2686 0 l -1284 1290 l 5512 5512 Z M 462880 270005 l -1436 1430 l -4172 0 l 0 -179 l 1290 0 l 0 -8086 l -1290 0 l 0 -179 l 4172 0 l 1436 1436 l 0 1447 l -1346 1340 l 1346 1346 l 0 1447 m -185 -4206 l 0 -1307 l -1323 -1323 l -2630 0 l 0 3953 l 2630 0 l 1323 -1323 m 0 4138 l 0 -1312 l -1323 -1318 l -2630 0 l 0 3948 l 2630 0 l 1323 -1318 Z M 468303 271435 l -2759 0 l 0 -179 l 1290 0 l 0 -7957 l -1222 1228 l -135 -135 l 1408 -1402 l 129 0 l 0 8266 l 1290 0 l 0 179 Z" class="C3" /><path d="M 500000 257128 l 0 64282" class="C1" /><path d="M 483334 340456 l 8333 33331" class="C2" /><path d="M 491667 373788 l 8333 -33331" class="C2" /><path d="M 500000 340456 l 8333 33331" class="C2" /><path d="M 508333 373788 l 8333 -33331" class="C2" /><path d="M 538667 368977 l 0 -6689 l 3445 0 l 0 6689 l -3445 0 m 574 -574 l 2297 0 l 0 -5540 l -2297 0 l 0 5540 Z M 543261 368977 l 0 -6689 l 3445 0 l 0 6689 l -3445 0 m 574 -574 l 2297 0 l 0 -5540 l -2297 0 l 0 5540 Z M 547855 368977 l 0 -6689 l 3445 0 l 0 6689 l -3445 0 m 574 -574 l 2297 0 l 0 -5540 l -2297 0 l 0 5540 Z M 552448 368977 l 0 -6689 l 3445 0 l 0 6689 l -3445 0 m 574 -574 l 2297 0 l 0 -5540 l -2297 0 l 0 5540 Z M 557042 368977 l 0 -6689 l 3445 0 l 0 6689 l -3445 0 m 574 -574 l 2297 0 l 0 -5540 l -2297 0 l 0 5540 Z" class="C3" /><path d="M 500000 378549 l 0 121422" class="C1" /><path d="M 595233 -0 l 0 23808" class="C1" /><path d="M 578567 42855 l 8333 33331" class="C2" /><path d="M 586900 76186 l 8333 -33331" class="C2" /><path d="M 595233 42855 l 8333 33331" class="C2" /><path d="M 603565 76186 l 8333 -33331" class="C2" /><path d="M 636636 71442 l -2207 0 l 0 -144 l 1032 0 l 0 -6469 l -1032 0 l 0 -144 l 2207 0 l 0 144 l -1032 0 l 0 6469 l 1032 0 l 0 144 Z M 643253 71442 l -4482 0 l 0 -6684 l 148 0 l 0 6541 l 4334 0 l 0 144 Z M 644931 71375 l 0 -6689 l 3445 0 l 0 6689 l -3445 0 m 574 -574 l 2297 0 l 0 -5540 l -2297 0 l 0 5540 Z M 649525 71375 l 0 -6689 l 3445 0 l 0 6689 l -3445 0 m 574 -574 l 2297 0 l 0 -5540 l -2297 0 l 0 5540 Z M 654118 71375 l 0 -6689 l 3445 0 l 0 6689 l -3445 0 m 574 -574 l 2297 0 l 0 -5540 l -2297 0 l 0 5540 Z" class="C3" /><path d="M 595233 80948 l 0 419023" class="C1" /><path d="M 678561 -0 l 0 59520" class="C1" /><path d="M 661895 78567 l 8333 33331" class="C2" /><path d="M 670228 111898 l 8333 -33331" class="C2" /><path d="M 678561 78567 l 8333 33331" class="C2" /><path d="M 686894 111898 l 8333 -33331" class="C2" /><path d="M 722244 102704 l -1148 1148 l -2059 0 l 3185 3176 l -108 108 l -3279 -3284 l -1000 0 l 0 3234 l -148 0 l 0 -6689 l 3409 0 l 1148 1148 l 0 1157 m -148 -58 l 0 -1045 l -1059 -1059 l -3203 0 l 0 3163 l 3203 0 l 1059 -1059 Z M 728861 102704 l -1148 1148 l -3261 0 l 0 3234 l -148 0 l 0 -6689 l 3409 0 l 1148 1148 l 0 1157 m -148 -58 l 0 -1045 l -1059 -1059 l -3203 0 l 0 3163 l 3203 0 l 1059 -1059 Z M 730462 107087 l 0 -6689 l 3445 0 l 0 6689 l -3445 0 m 574 -574 l 2297 0 l 0 -5540 l -2297 0 l 0 5540 Z M 735056 107087 l 0 -6689 l 3445 0 l 0 6689 l -3445 0 m 574 -574 l 2297 0 l 0 -5540 l -2297 0 l 0 5540 Z M 739650 107087 l 0 -6689 l 3445 0 l 0 6689 l -3445 0 m 574 -574 l 2297 0 l 0 -5540 l -2297 0 l 0 5540 Z" class="C3" /><path d="M 678561 116660 l 0 383311" class="C1" /><path d="M 738081 166657 l 142849 0" class="C5" /><path d="M 880930 166657 l 0 -142849" class="C5" /><path d="M 880930 23808 l -142849 0" class="C5" /><path d="M 738081 23808 l 0 142849" class="C5" /><path d="M 750703 18985 l 0 -8361 l 4307 0 l 0 8361 l -4307 0 m 718 -718 l 2871 0 l 0 -6925 l -2871 0 l 0 6925 Z M 756445 18985 l 0 -8361 l 4307 0 l 0 8361 l -4307 0 m 718 -718 l 2871 0 l 0 -6925 l -2871 0 l 0 6925 Z M 762188 18985 l 0 -8361 l 4307 0 l 0 8361 l -4307 0 m 718 -718 l 2871 0 l 0 -6925 l -2871 0 l 0 6925 Z" class="C3" /><path d="M 749985 -0 l 0 23808" class="C1" /><path d="M 749985 47616 l 23808 0" class="C1" /><path d="M 773794 47616 l 19047 19047" class="C2" /><path d="M 792840 66663 l 28570 0" class="C1" /><path d="M 821410 66663 l 0 -19047" class="C1" /><path d="M 821410 47616 l 35712 0" class="C1" /><path d="M 809506 166657 l 0 35712" class="C1" /><path d="M 702943 221366 l 0 -6689 l 3445 0 l 0 6689 l -3445 0 m 574 -574 l 2297 0 l 0 -5540 l -2297 0 l 0 5540 Z M 707537 221366 l 0 -6689 l 3445 0 l 0 6689 l -3445 0 m 574 -574 l 2297 0 l 0 -5540 l -2297 0 l 0 5540 Z M 712131 221366 l 0 -6689 l 3445 0 l 0 6689 l -3445 0 m 574 -574 l 2297 0 l 0 -5540 l -2297 0 l 0 5540 Z M 716725 221366 l 0 -6689 l 3445 0 l 0 6689 l -3445 0 m 574 -574 l 2297 0 l 0 -5540 l -2297 0 l 0 5540 Z M 721318 221366 l 0 -6689 l 3445 0 l 0 6689 l -3445 0 m 574 -574 l 2297 0 l 0 -5540 l -2297 0 l 0 5540 Z M 725912 221366 l 0 -6689 l 3445 0 l 0 6689 l -3445 0 m 574 -574 l 2297 0 l 0 -5540 l -2297 0 l 0 5540 Z M 730506 221366 l 0 -6689 l 3445 0 l 0 6689 l -3445 0 m 574 -574 l 2297 0 l 0 -5540 l -2297 0 l 0 5540 Z M 735099 221366 l 0 -6689 l 3445 0 l 0 6689 l -3445 0 m 574 -574 l 2297 0 l 0 -5540 l -2297 0 l 0 5540 Z M 739693 221366 l 0 -6689 l 3445 0 l 0 6689 l -3445 0 m 574 -574 l 2297 0 l 0 -5540 l -2297 0 l 0 5540 Z" class="C3" /><path d="M 809506 226177 l 19047 0" class="C1" /><path d="M 828552 226177 l 14285 14285" class="C2" /><path d="M 842837 240462 l 26189 0" class="C1" /><path d="M 869026 240462 l 0 -14285" class="C1" /><path d="M 869026 226177 l 23808 0" class="C1" /><path d="M 892834 226177 l 0 83328" class="C1" /><path d="M 809506 226177 l 0 83328" class="C1" /><path d="M 797602 333314 l 23808 0" class="C2" /><path d="M 797602 347599 l 23808 0" class="C2" /><path d="M 840273 350987 l -1408 1396 l -2826 0 l -1436 -1430 l 0 -5580 l 1436 -1436 l 2826 0 l 1408 1402 l -135 135 l -1346 -1357 l -2686 0 l -1318 1323 l 0 5445 l 1318 1318 l 2686 0 l 1346 -1351 l 135 135 Z" class="C3" /><path d="M 809506 333314 l 0 -23808" class="C1" /><path d="M 809506 347599 l 0 23808" class="C1" /><path d="M 892834 -0 l 0 309506" class="C1" /><path d="M 940451 404738 c 0 26298 -21319 47616 -47616 47616 c -26298 0 -47616 -21319 -47616 -47616 c 0 -26298 21319 -47616 47616 -47616 c 26298 0 47616 21319 47616 47616" class="C2" /><path d="M 879008 395127 l -264 0 l 0 -11255 l -3805 7610 l -3805 -7610 l 0 11255 l -264 0 l 0 -11816 l 280 0 l 3789 7578 l 3789 -7578 l 280 0 l 0 11816 Z" class="C3" /><path d="M 877926 433331 l -2759 0 l 0 -179 l 1290 0 l 0 -7957 l -1222 1228 l -135 -135 l 1408 -1402 l 129 0 l 0 8266 l 1290 0 l 0 179 Z M 886265 427802 l -1419 1424 l -2759 -1379 l -1335 1335 l -135 -140 l 1424 -1424 l 2753 1379 l 1335 -1335 l 135 140 Z" class="C3" /><path d="M 892834 309506 l 0 47616" class="C1" /><path d="M 809506 364265 l 83328 0" class="C1" /><path d="M 892834 364265 l 0 -7142" class="C1" /><path d="M 892834 452355 l 0 47616" class="C1" /><path d="M 892834 466640 l 0 19047" class="C4" /><path d="M 878549 485686 l 28570 0" class="C4" /><path d="M 883311 492829 l 19047 0" class="C4" /><path d="M 888073 499971 l 9523 0" class="C4" /><path d="M 892834 466640 l 0 -14285" class="C1" /><path d="M 370081 552261 l 0 -11944 l 6152 0 l 0 11944 l -6152 0 m 1025 -1025 l 4102 0 l 0 -9893 l -4102 0 l 0 9893 Z M 383170 552381 l -3941 0 l 0 -256 l 1842 0 l 0 -11367 l -1746 1754 l -192 -192 l 2011 -2003 l 184 0 l 0 11808 l 1842 0 l 0 256 Z M 394986 548448 l -1834 0 l 0 3813 l -264 0 l 0 -3813 l -6040 0 l 6305 -8395 l 0 8139 l 1834 0 l 0 256 m -2099 -256 l 0 -7354 l -5511 7354 l 5511 0 Z M 406802 546485 l -7875 0 l 0 -264 l 7875 0 l 0 264 Z M 418754 550338 l -2051 2043 l -4037 0 l -2019 -1995 l 192 -192 l 1923 1931 l 3837 0 l 1891 -1883 l 0 -3845 l -1891 -1883 l -5984 0 l 0 -4198 l 8003 0 l 0 256 l -7738 0 l 0 3677 l 5824 0 l 2051 2051 l 0 4037 Z M 430570 550338 l -2051 2043 l -4037 0 l -2019 -1995 l 192 -192 l 1923 1931 l 3837 0 l 1891 -1883 l 0 -1875 l -1891 -1883 l -1915 0 l 0 -264 l 1915 0 l 1891 -1891 l 0 -1867 l -1891 -1891 l -3837 0 l -1923 1939 l -192 -192 l 2019 -2003 l 4037 0 l 2051 2051 l 0 2067 l -1923 1915 l 1923 1923 l 0 2067 Z M 457062 552261 l 0 -11944 l 6152 0 l 0 11944 l -6152 0 m 1025 -1025 l 4102 0 l 0 -9893 l -4102 0 l 0 9893 Z M 465265 552261 l 0 -11944 l 6152 0 l 0 11944 l -6152 0 m 1025 -1025 l 4102 0 l 0 -9893 l -4102 0 l 0 9893 Z M 473468 552261 l 0 -11944 l 6152 0 l 0 11944 l -6152 0 m 1025 -1025 l 4102 0 l 0 -9893 l -4102 0 l 0 9893 Z M 481671 552261 l 0 -11944 l 6152 0 l 0 11944 l -6152 0 m 1025 -1025 l 4102 0 l 0 -9893 l -4102 0 l 0 9893 Z M 489874 552261 l 0 -11944 l 6152 0 l 0 11944 l -6152 0 m 1025 -1025 l 4102 0 l 0 -9893 l -4102 0 l 0 9893 Z M 498077 552261 l 0 -11944 l 6152 0 l 0 11944 l -6152 0 m 1025 -1025 l 4102 0 l 0 -9893 l -4102 0 l 0 9893 Z M 506280 552261 l 0 -11944 l 6152 0 l 0 11944 l -6152 0 m 1025 -1025 l 4102 0 l 0 -9893 l -4102 0 l 0 9893 Z M 514484 552261 l 0 -11944 l 6152 0 l 0 11944 l -6152 0 m 1025 -1025 l 4102 0 l 0 -9893 l -4102 0 l 0 9893 Z" class="C3" /></g></svg>