<?xml version='1.0' encoding='utf-8'?>
<svg xmlns="http://www.w3.org/2000/svg" width="420mm" height="233.7mm" viewBox="0 0 1000000 556429"><defs><style>.C1 {stroke: #ffffff; stroke-width: 595; stroke-opacity: 1.000; fill: none; fill-opacity: 1.000;}</style><style>.C2 {stroke: #ff0000; stroke-width: 595; stroke-opacity: 1.000; fill: none; fill-opacity: 1.000;}</style><style>.C3 {stroke: none; stroke-width: none; stroke-opacity: 1.000; fill: #00ff00; fill-opacity: 1.000;}</style><style>.C4 {stroke: #0000ff; stroke-width: 595; stroke-opacity: 1.000; fill: none; fill-opacity: 1.000;}</style></defs><rect fill="#212830" x="0" y="0" width="1000000" height="556429" fill-opacity="1.0" /><g stroke-linecap="round" stroke-linejoin="round" fill-rule="evenodd"><path d="M 0 37 l 1000000 0" class="C1" /><path d="M 0 500037 l 1000000 0" class="C1" /><path d="M 71429 252418 l 0 -28571" class="C2" /><path d="M 71429 252418 l -23810 0" class="C2" /><path d="M 71429 223847 l -23810 0" class="C2" /><path d="M 42674 196911 l -1419 1424 l -2759 -1380 l -1335 1335 l -135 -140 l 1424 -1424 l 2753 1380 l 1335 -1335 l 135 140 Z M 50973 196877 l -1436 1436 l -2759 0 l -1318 1318 l 0 2630 l 5417 0 l 0 179 l -5602 0 l 0 -2877 l 1436 -1436 l 2753 0 l 1323 -1323 l 0 -1307 l -1323 -1323 l -2686 0 l -1346 1357 l -135 -135 l 1413 -1402 l 2826 0 l 1436 1436 l 0 1447 Z M 59245 196877 l -1436 1436 l -2759 0 l -1318 1318 l 0 2630 l 5417 0 l 0 179 l -5602 0 l 0 -2877 l 1436 -1436 l 2753 0 l 1323 -1323 l 0 -1307 l -1323 -1323 l -2686 0 l -1346 1357 l -135 -135 l 1413 -1402 l 2826 0 l 1436 1436 l 0 1447 Z M 66137 201010 l -1436 1430 l -1447 0 l -1436 -1430 l 0 -5580 l 1436 -1436 l 1447 0 l 1436 1436 l 0 5580 m -185 -67 l 0 -5445 l -1318 -1323 l -1312 0 l -1318 1323 l 0 5445 l 1318 1318 l 1312 0 l 1318 -1318 Z M 77157 194129 l -4116 8227 l -202 0 l -4111 -8227 l 157 -90 l 4055 8109 l 4055 -8109 l 163 90 Z" class="C3" /><path d="M 71429 252418 l 0 -252381" class="C1" /><path d="M 71429 223847 l 0 276190" class="C1" /><path d="M 71429 519085 l 0 19048" class="C2" /><path d="M 57143 538132 l 28571 0" class="C2" /><path d="M 61905 545275 l 19048 0" class="C2" /><path d="M 66667 552418 l 9524 0" class="C2" /><path d="M 71429 519085 l 0 -19048" class="C1" /><path d="M 202381 37 l 0 71429" class="C1" /><path d="M 202381 97656 l 0 -28571" class="C2" /><path d="M 202381 69085 l 19048 19048" class="C2" /><path d="M 161654 100059 l -2664 0 l 0 1194 l 1380 0 l 0 1565 l -1469 0 l 0 -185 l 1284 0 l 0 -1194 l -1380 0 l 0 -1380 l -1318 0 l -1436 -1430 l 0 -2826 l 1436 -1436 l 4167 0 l 0 185 l -4099 0 l -1318 1318 l 0 2692 l 1318 1318 l 4099 0 l 0 179 Z M 163751 99975 l 0 -8361 l 4307 0 l 0 8361 l -4307 0 m 718 -718 l 2871 0 l 0 -6926 l -2871 0 l 0 6926 Z M 172915 93173 l -2759 0 l 0 -185 l 2759 0 l 0 185 Z M 181254 99902 l -135 135 l -1312 -1318 l -1340 1340 l -1447 0 l -1436 -1430 l 0 -2826 l 1436 -1436 l 505 0 l -1290 -1284 l 1509 -1503 l 1503 1503 l -1284 1284 l 505 0 l 1436 1436 l 0 2759 l 1352 1340 m -2260 -6819 l -1251 -1251 l -1251 1251 l 1251 1251 l 1251 -1251 m 723 5479 l 0 -2692 l -1318 -1318 l -622 0 l -34 34 l -34 -34 l -622 0 l -1318 1318 l 0 2692 l 1318 1318 l 1312 0 l 1318 -1318 Z M 186015 95932 l -1380 0 l 0 -185 l 600 0 l 0 -3825 l -533 538 l -135 -135 l 847 -841 l 0 4262 l 600 0 l 0 185 m 4890 -4172 l -6892 8266 l -135 -112 l 6892 -8266 l 135 112 m -757 6926 l -594 0 l 0 1290 l -185 0 l 0 -1290 l -2159 0 l 2344 -3124 l 0 2939 l 594 0 l 0 185 m -779 -185 l 0 -2389 l -1795 2389 l 1795 0 Z M 192217 95057 l 594 0 l 0 -2013 l 1436 -1430 l 2832 0 l 746 740 l 0 729 l -185 0 l 0 -651 l -639 -634 l -2675 0 l -1329 1323 l 0 1935 l 3354 0 l 0 185 l -3354 0 l 0 1194 l 2664 0 l 0 185 l -2664 0 l 0 1935 l 1329 1329 l 2675 0 l 639 -639 l 0 -651 l 185 0 l 0 729 l -746 740 l -2832 0 l -1436 -1430 l 0 -2013 l -594 0 l 0 -185 l 594 0 l 0 -1194 l -594 0 l 0 -185 Z M 207448 99902 l -135 135 l -1312 -1318 l -1340 1340 l -1447 0 l -1436 -1430 l 0 -2826 l 1436 -1436 l 505 0 l -1290 -1284 l 1509 -1503 l 1503 1503 l -1284 1284 l 505 0 l 1436 1436 l 0 2759 l 1352 1340 m -2260 -6819 l -1251 -1251 l -1251 1251 l 1251 1251 l 1251 -1251 m 723 5479 l 0 -2692 l -1318 -1318 l -622 0 l -34 34 l -34 -34 l -622 0 l -1318 1318 l 0 2692 l 1318 1318 l 1312 0 l 1318 -1318 Z M 209478 99975 l 0 -8361 l 4307 0 l 0 8361 l -4307 0 m 718 -718 l 2871 0 l 0 -6926 l -2871 0 l 0 6926 Z M 215221 99975 l 0 -8361 l 4307 0 l 0 8361 l -4307 0 m 718 -718 l 2871 0 l 0 -6926 l -2871 0 l 0 6926 Z" class="C3" /><path d="M 202381 97656 l 0 116667" class="C1" /><path d="M 223810 250037 c 0 11835 -9594 21429 -21429 21429 c -11835 0 -21429 -9594 -21429 -21429 c 0 -11835 9594 -21429 21429 -21429 c 11835 0 21429 9594 21429 21429" class="C2" /><path d="M 187381 265037 l 30000 -30000" class="C2" /><path d="M 187381 235037 l 30000 30000" class="C2" /><path d="M 233083 273869 l -5602 0 l 0 -8445 l 5602 0 l 0 179 l -5417 0 l 0 3954 l 2664 0 l 0 185 l -2664 0 l 0 3948 l 5417 0 l 0 179 Z M 241354 273869 l -5602 0 l 0 -8356 l 185 0 l 0 8176 l 5417 0 l 0 179 Z" class="C3" /><path d="M 202381 271466 l 0 228571" class="C1" /><path d="M 309524 37 l 0 71429" class="C1" /><path d="M 292857 90513 l 8333 33333 l 8333 -33333 l 8333 33333 l 8333 -33333" class="C2" /><path d="M 353209 117959 l -1148 1144 l -3338 0 l 0 -144 l 1032 0 l 0 -6469 l -1032 0 l 0 -144 l 3338 0 l 1148 1148 l 0 4464 m -148 -54 l 0 -4356 l -1059 -1059 l -2104 0 l 0 6469 l 2104 0 l 1059 -1054 Z M 359853 117932 l -1175 1171 l -2261 0 l -1131 -1117 l 108 -108 l 1077 1081 l 2149 0 l 1032 -1027 l -4410 -4410 l 1175 -1175 l 2261 0 l 1126 1122 l -108 108 l -1077 -1086 l -2149 0 l -1027 1032 l 4410 4410 Z M 366421 118977 l -108 108 l -1050 -1054 l -1072 1072 l -1157 0 l -1148 -1144 l 0 -2261 l 1148 -1148 l 404 0 l -1032 -1027 l 1207 -1202 l 1202 1202 l -1027 1027 l 404 0 l 1148 1148 l 0 2207 l 1081 1072 m -1808 -5455 l -1000 -1000 l -1000 1000 l 1000 1000 l 1000 -1000 m 579 4383 l 0 -2153 l -1054 -1054 l -498 0 l -27 27 l -27 -27 l -498 0 l -1054 1054 l 0 2153 l 1054 1054 l 1050 0 l 1054 -1054 Z M 371939 110269 l -1157 1148 l -1157 -1148 l 108 -112 l 1050 1059 l 1045 -1059 l 112 112 m 1148 7663 l -1175 1171 l -2261 0 l -1131 -1117 l 108 -108 l 1077 1081 l 2149 0 l 1032 -1027 l -4410 -4410 l 1175 -1175 l 2261 0 l 1126 1122 l -108 108 l -1077 -1086 l -2149 0 l -1027 1032 l 4410 4410 Z M 386219 119103 l -2131 0 l 0 956 l 1104 0 l 0 1252 l -1175 0 l 0 -148 l 1027 0 l 0 -956 l -1104 0 l 0 -1104 l -1054 0 l -1148 -1144 l 0 -2261 l 1148 -1148 l 3333 0 l 0 148 l -3279 0 l -1054 1054 l 0 2153 l 1054 1054 l 3279 0 l 0 144 Z M 387897 119035 l 0 -6689 l 3445 0 l 0 6689 l -3445 0 m 574 -574 l 2297 0 l 0 -5541 l -2297 0 l 0 5541 Z M 397431 115801 l -4410 0 l 0 -148 l 4410 0 l 0 148 Z M 404102 118977 l -108 108 l -1050 -1054 l -1072 1072 l -1157 0 l -1148 -1144 l 0 -2261 l 1148 -1148 l 404 0 l -1032 -1027 l 1207 -1202 l 1202 1202 l -1027 1027 l 404 0 l 1148 1148 l 0 2207 l 1081 1072 m -1808 -5455 l -1000 -1000 l -1000 1000 l 1000 1000 l 1000 -1000 m 579 4383 l 0 -2153 l -1054 -1054 l -498 0 l -27 27 l -27 -27 l -498 0 l -1054 1054 l 0 2153 l 1054 1054 l 1050 0 l 1054 -1054 Z M 405726 119035 l 0 -6689 l 3445 0 l 0 6689 l -3445 0 m 574 -574 l 2297 0 l 0 -5541 l -2297 0 l 0 5541 Z M 413128 113522 l -148 0 l 0 -1104 l 148 0 l 0 1104 m -2203 0 l -148 0 l 0 -1104 l 148 0 l 0 1104 Z" class="C3" /><path d="M 309524 128608 l 0 14286" class="C1" /><path d="M 309524 169085 l 0 -28571" class="C2" /><path d="M 309524 140513 l 19048 19048" class="C2" /><path d="M 354640 160501 l -1469 1464 l -2826 0 l -1413 -1396 l 135 -135 l 1346 1352 l 2686 0 l 1290 -1284 l -5513 -5513 l 1469 -1469 l 2826 0 l 1408 1402 l -135 135 l -1346 -1357 l -2686 0 l -1284 1290 l 5513 5513 Z M 362878 160534 l -1436 1430 l -4172 0 l 0 -179 l 1290 0 l 0 -8087 l -1290 0 l 0 -179 l 4172 0 l 1436 1436 l 0 1447 l -1346 1340 l 1346 1346 l 0 1447 m -185 -4206 l 0 -1307 l -1323 -1323 l -2630 0 l 0 3954 l 2630 0 l 1323 -1323 m 0 4139 l 0 -1312 l -1323 -1318 l -2630 0 l 0 3948 l 2630 0 l 1323 -1318 Z M 371150 156401 l -1436 1436 l -2759 0 l -1318 1318 l 0 2630 l 5417 0 l 0 179 l -5602 0 l 0 -2877 l 1436 -1436 l 2753 0 l 1323 -1323 l 0 -1307 l -1323 -1323 l -2686 0 l -1346 1357 l -135 -135 l 1413 -1402 l 2826 0 l 1436 1436 l 0 1447 Z" class="C3" /><path d="M 309524 169085 l 0 116667" class="C1" /><path d="M 292857 304799 l 8333 33333 l 8333 -33333 l 8333 33333 l 8333 -33333" class="C2" /><path d="M 353209 332244 l -1148 1144 l -3338 0 l 0 -144 l 1032 0 l 0 -6469 l -1032 0 l 0 -144 l 3338 0 l 1148 1148 l 0 4464 m -148 -54 l 0 -4356 l -1059 -1059 l -2104 0 l 0 6469 l 2104 0 l 1059 -1054 Z M 359804 333263 l -108 108 l -1050 -1054 l -1072 1072 l -1157 0 l -1148 -1144 l 0 -2261 l 1148 -1148 l 404 0 l -1032 -1027 l 1207 -1202 l 1202 1202 l -1027 1027 l 404 0 l 1148 1148 l 0 2207 l 1081 1072 m -1808 -5455 l -1000 -1000 l -1000 1000 l 1000 1000 l 1000 -1000 m 579 4383 l 0 -2153 l -1054 -1054 l -498 0 l -27 27 l -27 -27 l -498 0 l -1054 1054 l 0 2153 l 1054 1054 l 1050 0 l 1054 -1054 Z M 365322 324555 l -1157 1148 l -1157 -1148 l 108 -112 l 1050 1059 l 1045 -1059 l 112 112 m 1148 7663 l -1175 1171 l -2261 0 l -1131 -1117 l 108 -108 l 1077 1081 l 2149 0 l 1032 -1027 l -4410 -4410 l 1175 -1175 l 2261 0 l 1126 1122 l -108 108 l -1077 -1086 l -2149 0 l -1027 1032 l 4410 4410 Z M 379602 333388 l -2131 0 l 0 956 l 1104 0 l 0 1252 l -1175 0 l 0 -148 l 1027 0 l 0 -956 l -1104 0 l 0 -1104 l -1054 0 l -1148 -1144 l 0 -2261 l 1148 -1148 l 3333 0 l 0 148 l -3279 0 l -1054 1054 l 0 2153 l 1054 1054 l 3279 0 l 0 144 Z M 381280 333321 l 0 -6689 l 3445 0 l 0 6689 l -3445 0 m 574 -574 l 2297 0 l 0 -5541 l -2297 0 l 0 5541 Z M 390813 330086 l -4410 0 l 0 -148 l 4410 0 l 0 148 Z M 397484 333263 l -108 108 l -1050 -1054 l -1072 1072 l -1157 0 l -1148 -1144 l 0 -2261 l 1148 -1148 l 404 0 l -1032 -1027 l 1207 -1202 l 1202 1202 l -1027 1027 l 404 0 l 1148 1148 l 0 2207 l 1081 1072 m -1808 -5455 l -1000 -1000 l -1000 1000 l 1000 1000 l 1000 -1000 m 579 4383 l 0 -2153 l -1054 -1054 l -498 0 l -27 27 l -27 -27 l -498 0 l -1054 1054 l 0 2153 l 1054 1054 l 1050 0 l 1054 -1054 Z M 399109 333321 l 0 -6689 l 3445 0 l 0 6689 l -3445 0 m 574 -574 l 2297 0 l 0 -5541 l -2297 0 l 0 5541 Z M 406511 327807 l -148 0 l 0 -1104 l 148 0 l 0 1104 m -2203 0 l -148 0 l 0 -1104 l 148 0 l 0 1104 Z" class="C3" /><path d="M 309524 342894 l 0 157143" class="C1" /><path d="M 440476 190513 l 14286 0 m 14286 0 l 14286 0 m 14286 0 l 14286 0 m 14286 0 l 14286 0 m 14286 0 l 14286 0 m 14286 0 l 14286 0 m 14286 0 l 7143 0 m 0 0 l 0 -7143 m 0 -14286 l 0 -14286 m 0 -14286 l 0 -14286 m 0 -14286 l 0 -14286 m 0 -14286 l 0 -14286 m 0 -14286 l 0 -14286 m 0 -14286 l 0 -2381 m 0 0 l -11905 0 m -14286 0 l -14286 0 m -14286 0 l -14286 0 m -14286 0 l -14286 0 m -14286 0 l -14286 0 m -14286 0 l -14286 0 m -14286 0 l -9524 0 m 0 0 l 0 4762 m 0 14286 l 0 14286 m 0 14286 l 0 14286 m 0 14286 l 0 14286 m 0 14286 l 0 14286 m 0 14286 l 0 14286 m 0 14286 l 0 4762" class="C4" /><path d="M 459340 18950 l -135 135 l -1312 -1318 l -1340 1340 l -1447 0 l -1436 -1430 l 0 -2826 l 1436 -1436 l 505 0 l -1290 -1284 l 1509 -1503 l 1503 1503 l -1284 1284 l 505 0 l 1436 1436 l 0 2759 l 1352 1340 m -2260 -6819 l -1251 -1251 l -1251 1251 l 1251 1251 l 1251 -1251 m 723 5479 l 0 -2692 l -1318 -1318 l -622 0 l -34 34 l -34 -34 l -622 0 l -1318 1318 l 0 2692 l 1318 1318 l 1312 0 l 1318 -1318 Z M 461370 19023 l 0 -8361 l 4307 0 l 0 8361 l -4307 0 m 718 -718 l 2871 0 l 0 -6926 l -2871 0 l 0 6926 Z M 467113 19023 l 0 -8361 l 4307 0 l 0 8361 l -4307 0 m 718 -718 l 2871 0 l 0 -6926 l -2871 0 l 0 6926 Z M 477701 10830 l -2759 1380 l -90 -163 l 2753 -1374 l 95 157 m 1458 4055 l -1469 1469 l -4077 0 l 0 1256 l 1318 1318 l 2720 0 l 0 179 l -2787 0 l -1436 -1430 l 0 -2826 l 1436 -1436 l 2826 0 l 1469 1469 m -252 0 l -1290 -1284 l -2686 0 l -1318 1318 l 0 1256 l 4004 0 l 1290 -1290 Z M 481127 19023 l 0 -8361 l 4307 0 l 0 8361 l -4307 0 m 718 -718 l 2871 0 l 0 -6926 l -2871 0 l 0 6926 Z M 486870 19023 l 0 -8361 l 4307 0 l 0 8361 l -4307 0 m 718 -718 l 2871 0 l 0 -6926 l -2871 0 l 0 6926 Z M 498854 18950 l -135 135 l -1312 -1318 l -1340 1340 l -1447 0 l -1436 -1430 l 0 -2826 l 1436 -1436 l 505 0 l -1290 -1284 l 1509 -1503 l 1503 1503 l -1284 1284 l 505 0 l 1436 1436 l 0 2759 l 1352 1340 m -2260 -6819 l -1251 -1251 l -1251 1251 l 1251 1251 l 1251 -1251 m 723 5479 l 0 -2692 l -1318 -1318 l -622 0 l -34 34 l -34 -34 l -622 0 l -1318 1318 l 0 2692 l 1318 1318 l 1312 0 l 1318 -1318 Z M 503615 14980 l -1380 0 l 0 -185 l 600 0 l 0 -3825 l -533 538 l -135 -135 l 847 -841 l 0 4262 l 600 0 l 0 185 m 4890 -4172 l -6892 8266 l -135 -112 l 6892 -8266 l 135 112 m -757 6926 l -594 0 l 0 1290 l -185 0 l 0 -1290 l -2159 0 l 2344 -3124 l 0 2939 l 594 0 l 0 185 m -779 -185 l 0 -2389 l -1795 2389 l 1795 0 Z M 509817 14105 l 594 0 l 0 -2013 l 1436 -1430 l 2832 0 l 746 740 l 0 729 l -185 0 l 0 -651 l -639 -634 l -2675 0 l -1329 1323 l 0 1935 l 3354 0 l 0 185 l -3354 0 l 0 1194 l 2664 0 l 0 185 l -2664 0 l 0 1935 l 1329 1329 l 2675 0 l 639 -639 l 0 -651 l 185 0 l 0 729 l -746 740 l -2832 0 l -1436 -1430 l 0 -2013 l -594 0 l 0 -185 l 594 0 l 0 -1194 l -594 0 l 0 -185 Z M 525048 18950 l -135 135 l -1312 -1318 l -1340 1340 l -1447 0 l -1436 -1430 l 0 -2826 l 1436 -1436 l 505 0 l -1290 -1284 l 1509 -1503 l 1503 1503 l -1284 1284 l 505 0 l 1436 1436 l 0 2759 l 1352 1340 m -2260 -6819 l -1251 -1251 l -1251 1251 l 1251 1251 l 1251 -1251 m 723 5479 l 0 -2692 l -1318 -1318 l -622 0 l -34 34 l -34 -34 l -622 0 l -1318 1318 l 0 2692 l 1318 1318 l 1312 0 l 1318 -1318 Z M 527078 19023 l 0 -8361 l 4307 0 l 0 8361 l -4307 0 m 718 -718 l 2871 0 l 0 -6926 l -2871 0 l 0 6926 Z M 532821 19023 l 0 -8361 l 4307 0 l 0 8361 l -4307 0 m 718 -718 l 2871 0 l 0 -6926 l -2871 0 l 0 6926 Z M 544833 16354 l -2759 0 l 0 1256 l 1323 1318 l 1340 0 l 0 179 l -1413 0 l -1251 -1245 l 0 1161 l -185 0 l 0 -1161 l -1284 1279 l -1469 -1464 l 0 -2826 l 1469 -1469 l 1380 1380 l 1374 -1380 l 1475 1469 l 0 1503 m -185 -179 l 0 -1256 l -1290 -1284 l -1284 1284 l 0 1256 l 2574 0 m -2759 1436 l 0 -2692 l -1284 -1284 l -1284 1284 l 0 2692 l 1284 1284 l 1284 -1284 Z M 546835 19023 l 0 -8361 l 4307 0 l 0 8361 l -4307 0 m 718 -718 l 2871 0 l 0 -6926 l -2871 0 l 0 6926 Z M 554708 12131 l -179 0 l 0 -1380 l 179 0 l 0 1380 m 2737 5580 l -1413 1396 l -1447 0 l -1436 -1430 l 0 -1447 l 1380 -1380 l 0 -1340 l 179 0 l 0 1408 l -1374 1380 l 0 1312 l 1318 1318 l 1312 0 l 1340 -1352 l 140 135 Z" class="C3" /><path d="M 464286 37 l 0 23810" class="C1" /><path d="M 464286 35751 l 23810 0" class="C1" /><path d="M 488095 35751 l 19048 19048" class="C2" /><path d="M 507143 54799 l 28571 0" class="C1" /><path d="M 535714 54799 l 0 -19048" class="C1" /><path d="M 535714 35751 l 23810 0" class="C1" /><path d="M 464286 107180 l 23810 0" class="C1" /><path d="M 488095 107180 l 19048 19048" class="C2" /><path d="M 507143 126227 l 28571 0" class="C1" /><path d="M 535714 126227 l 0 -19048" class="C1" /><path d="M 535714 107180 l 23810 0" class="C1" /><path d="M 464286 154799 l 23810 0" class="C1" /><path d="M 488095 154799 l 19048 19048" class="C2" /><path d="M 507143 173847 l 28571 0" class="C1" /><path d="M 535714 173847 l 0 -19048" class="C1" /><path d="M 500000 190513 l 0 35714" class="C1" /><path d="M 500000 257180 l 0 -28571" class="C2" /><path d="M 500000 228608 l 19048 19048" class="C2" /><path d="M 440165 250576 l -2207 1104 l -72 -130 l 2203 -1099 l 76 126 m 1166 3244 l -1175 1175 l -3262 0 l 0 1005 l 1054 1054 l 2176 0 l 0 144 l -2230 0 l -1148 -1144 l 0 -2261 l 1148 -1148 l 2261 0 l 1175 1175 m -202 0 l -1032 -1027 l -2149 0 l -1054 1054 l 0 1005 l 3203 0 l 1032 -1032 Z M 445696 250567 l -1157 1148 l -1104 -1099 l -1045 1054 l -108 -108 l 1153 -1148 l 1104 1099 l 1045 -1054 l 112 108 Z M 446217 257131 l 0 -6689 l 3445 0 l 0 6689 l -3445 0 m 574 -574 l 2297 0 l 0 -5541 l -2297 0 l 0 5541 Z M 454687 250576 l -2207 1104 l -72 -130 l 2203 -1099 l 76 126 m 1166 3244 l -1175 1175 l -3262 0 l 0 1005 l 1054 1054 l 2176 0 l 0 144 l -2230 0 l -1148 -1144 l 0 -2261 l 1148 -1148 l 2261 0 l 1175 1175 m -202 0 l -1032 -1027 l -2149 0 l -1054 1054 l 0 1005 l 3203 0 l 1032 -1032 Z M 457428 257131 l 0 -6689 l 3445 0 l 0 6689 l -3445 0 m 574 -574 l 2297 0 l 0 -5541 l -2297 0 l 0 5541 Z M 462022 257131 l 0 -6689 l 3445 0 l 0 6689 l -3445 0 m 574 -574 l 2297 0 l 0 -5541 l -2297 0 l 0 5541 Z M 471609 257072 l -108 108 l -1050 -1054 l -1072 1072 l -1157 0 l -1148 -1144 l 0 -2261 l 1148 -1148 l 404 0 l -1032 -1027 l 1207 -1202 l 1202 1202 l -1027 1027 l 404 0 l 1148 1148 l 0 2207 l 1081 1072 m -1808 -5455 l -1000 -1000 l -1000 1000 l 1000 1000 l 1000 -1000 m 579 4383 l 0 -2153 l -1054 -1054 l -498 0 l -27 27 l -27 -27 l -498 0 l -1054 1054 l 0 2153 l 1054 1054 l 1050 0 l 1054 -1054 Z M 477127 248364 l -1157 1148 l -1157 -1148 l 108 -112 l 1050 1059 l 1045 -1059 l 112 112 m 1148 7663 l -1175 1171 l -2261 0 l -1131 -1117 l 108 -108 l 1077 1081 l 2149 0 l 1032 -1027 l -4410 -4410 l 1175 -1175 l 2261 0 l 1126 1122 l -108 108 l -1077 -1086 l -2149 0 l -1027 1032 l 4410 4410 Z M 491407 257198 l -2131 0 l 0 956 l 1104 0 l 0 1252 l -1175 0 l 0 -148 l 1027 0 l 0 -956 l -1104 0 l 0 -1104 l -1054 0 l -1148 -1144 l 0 -2261 l 1148 -1148 l 3333 0 l 0 148 l -3279 0 l -1054 1054 l 0 2153 l 1054 1054 l 3279 0 l 0 144 Z M 493085 257131 l 0 -6689 l 3445 0 l 0 6689 l -3445 0 m 574 -574 l 2297 0 l 0 -5541 l -2297 0 l 0 5541 Z M 502619 253896 l -4410 0 l 0 -148 l 4410 0 l 0 148 Z M 509290 257072 l -108 108 l -1050 -1054 l -1072 1072 l -1157 0 l -1148 -1144 l 0 -2261 l 1148 -1148 l 404 0 l -1032 -1027 l 1207 -1202 l 1202 1202 l -1027 1027 l 404 0 l 1148 1148 l 0 2207 l 1081 1072 m -1808 -5455 l -1000 -1000 l -1000 1000 l 1000 1000 l 1000 -1000 m 579 4383 l 0 -2153 l -1054 -1054 l -498 0 l -27 27 l -27 -27 l -498 0 l -1054 1054 l 0 2153 l 1054 1054 l 1050 0 l 1054 -1054 Z M 510914 257131 l 0 -6689 l 3445 0 l 0 6689 l -3445 0 m 574 -574 l 2297 0 l 0 -5541 l -2297 0 l 0 5541 Z M 518316 251617 l -148 0 l 0 -1104 l 148 0 l 0 1104 m -2203 0 l -148 0 l 0 -1104 l 148 0 l 0 1104 Z M 524916 257072 l -108 108 l -1050 -1054 l -1072 1072 l -1157 0 l -1148 -1144 l 0 -2261 l 1148 -1148 l 404 0 l -1032 -1027 l 1207 -1202 l 1202 1202 l -1027 1027 l 404 0 l 1148 1148 l 0 2207 l 1081 1072 m -1808 -5455 l -1000 -1000 l -1000 1000 l 1000 1000 l 1000 -1000 m 579 4383 l 0 -2153 l -1054 -1054 l -498 0 l -27 27 l -27 -27 l -498 0 l -1054 1054 l 0 2153 l 1054 1054 l 1050 0 l 1054 -1054 Z M 528725 253896 l -1104 0 l 0 -148 l 480 0 l 0 -3060 l -426 431 l -108 -108 l 677 -673 l 0 3410 l 480 0 l 0 148 m 3912 -3338 l -5514 6613 l -108 -90 l 5514 -6613 l 108 90 m -606 5541 l -476 0 l 0 1032 l -148 0 l 0 -1032 l -1727 0 l 1875 -2499 l 0 2351 l 476 0 l 0 148 m -624 -148 l 0 -1911 l -1436 1911 l 1436 0 Z M 533686 253196 l 476 0 l 0 -1611 l 1148 -1144 l 2266 0 l 597 592 l 0 583 l -148 0 l 0 -520 l -511 -507 l -2140 0 l -1063 1059 l 0 1548 l 2683 0 l 0 148 l -2683 0 l 0 956 l 2131 0 l 0 148 l -2131 0 l 0 1548 l 1063 1063 l 2140 0 l 511 -511 l 0 -520 l 148 0 l 0 583 l -597 592 l -2266 0 l -1148 -1144 l 0 -1611 l -476 0 l 0 -148 l 476 0 l 0 -956 l -476 0 l 0 -148 Z M 545871 257072 l -108 108 l -1050 -1054 l -1072 1072 l -1157 0 l -1148 -1144 l 0 -2261 l 1148 -1148 l 404 0 l -1032 -1027 l 1207 -1202 l 1202 1202 l -1027 1027 l 404 0 l 1148 1148 l 0 2207 l 1081 1072 m -1808 -5455 l -1000 -1000 l -1000 1000 l 1000 1000 l 1000 -1000 m 579 4383 l 0 -2153 l -1054 -1054 l -498 0 l -27 27 l -27 -27 l -498 0 l -1054 1054 l 0 2153 l 1054 1054 l 1050 0 l 1054 -1054 Z M 547495 257131 l 0 -6689 l 3445 0 l 0 6689 l -3445 0 m 574 -574 l 2297 0 l 0 -5541 l -2297 0 l 0 5541 Z M 552089 257131 l 0 -6689 l 3445 0 l 0 6689 l -3445 0 m 574 -574 l 2297 0 l 0 -5541 l -2297 0 l 0 5541 Z" class="C3" /><path d="M 454640 270024 l -1469 1464 l -2826 0 l -1413 -1396 l 135 -135 l 1346 1352 l 2686 0 l 1290 -1284 l -5513 -5513 l 1469 -1469 l 2826 0 l 1408 1402 l -135 135 l -1346 -1357 l -2686 0 l -1284 1290 l 5513 5513 Z M 462878 270058 l -1436 1430 l -4172 0 l 0 -179 l 1290 0 l 0 -8087 l -1290 0 l 0 -179 l 4172 0 l 1436 1436 l 0 1447 l -1346 1340 l 1346 1346 l 0 1447 m -185 -4206 l 0 -1307 l -1323 -1323 l -2630 0 l 0 3954 l 2630 0 l 1323 -1323 m 0 4139 l 0 -1312 l -1323 -1318 l -2630 0 l 0 3948 l 2630 0 l 1323 -1318 Z M 468301 271488 l -2759 0 l 0 -179 l 1290 0 l 0 -7958 l -1223 1228 l -135 -135 l 1408 -1402 l 129 0 l 0 8266 l 1290 0 l 0 179 Z" class="C3" /><path d="M 500000 257180 l 0 64286" class="C1" /><path d="M 483333 340513 l 8333 33333 l 8333 -33333 l 8333 33333 l 8333 -33333" class="C2" /><path d="M 542546 362481 l -2207 1104 l -72 -130 l 2203 -1099 l 76 126 m 1166 3244 l -1175 1175 l -3262 0 l 0 1005 l 1054 1054 l 2176 0 l 0 144 l -2230 0 l -1148 -1144 l 0 -2261 l 1148 -1148 l 2261 0 l 1175 1175 m -202 0 l -1032 -1027 l -2149 0 l -1054 1054 l 0 1005 l 3203 0 l 1032 -1032 Z M 548077 362472 l -1157 1148 l -1104 -1099 l -1045 1054 l -108 -108 l 1153 -1148 l 1104 1099 l 1045 -1054 l 112 108 Z M 548598 369035 l 0 -6689 l 3445 0 l 0 6689 l -3445 0 m 574 -574 l 2297 0 l 0 -5541 l -2297 0 l 0 5541 Z M 557068 362481 l -2207 1104 l -72 -130 l 2203 -1099 l 76 126 m 1166 3244 l -1175 1175 l -3262 0 l 0 1005 l 1054 1054 l 2176 0 l 0 144 l -2230 0 l -1148 -1144 l 0 -2261 l 1148 -1148 l 2261 0 l 1175 1175 m -202 0 l -1032 -1027 l -2149 0 l -1054 1054 l 0 1005 l 3203 0 l 1032 -1032 Z M 559809 369035 l 0 -6689 l 3445 0 l 0 6689 l -3445 0 m 574 -574 l 2297 0 l 0 -5541 l -2297 0 l 0 5541 Z M 564403 369035 l 0 -6689 l 3445 0 l 0 6689 l -3445 0 m 574 -574 l 2297 0 l 0 -5541 l -2297 0 l 0 5541 Z M 573990 368977 l -108 108 l -1050 -1054 l -1072 1072 l -1157 0 l -1148 -1144 l 0 -2261 l 1148 -1148 l 404 0 l -1032 -1027 l 1207 -1202 l 1202 1202 l -1027 1027 l 404 0 l 1148 1148 l 0 2207 l 1081 1072 m -1808 -5455 l -1000 -1000 l -1000 1000 l 1000 1000 l 1000 -1000 m 579 4383 l 0 -2153 l -1054 -1054 l -498 0 l -27 27 l -27 -27 l -498 0 l -1054 1054 l 0 2153 l 1054 1054 l 1050 0 l 1054 -1054 Z M 579508 360269 l -1157 1148 l -1157 -1148 l 108 -112 l 1050 1059 l 1045 -1059 l 112 112 m 1148 7663 l -1175 1171 l -2261 0 l -1131 -1117 l 108 -108 l 1077 1081 l 2149 0 l 1032 -1027 l -4410 -4410 l 1175 -1175 l 2261 0 l 1126 1122 l -108 108 l -1077 -1086 l -2149 0 l -1027 1032 l 4410 4410 Z M 593788 369103 l -2131 0 l 0 956 l 1104 0 l 0 1252 l -1175 0 l 0 -148 l 1027 0 l 0 -956 l -1104 0 l 0 -1104 l -1054 0 l -1148 -1144 l 0 -2261 l 1148 -1148 l 3333 0 l 0 148 l -3279 0 l -1054 1054 l 0 2153 l 1054 1054 l 3279 0 l 0 144 Z M 595466 369035 l 0 -6689 l 3445 0 l 0 6689 l -3445 0 m 574 -574 l 2297 0 l 0 -5541 l -2297 0 l 0 5541 Z M 605000 365801 l -4410 0 l 0 -148 l 4410 0 l 0 148 Z M 611671 368977 l -108 108 l -1050 -1054 l -1072 1072 l -1157 0 l -1148 -1144 l 0 -2261 l 1148 -1148 l 404 0 l -1032 -1027 l 1207 -1202 l 1202 1202 l -1027 1027 l 404 0 l 1148 1148 l 0 2207 l 1081 1072 m -1808 -5455 l -1000 -1000 l -1000 1000 l 1000 1000 l 1000 -1000 m 579 4383 l 0 -2153 l -1054 -1054 l -498 0 l -27 27 l -27 -27 l -498 0 l -1054 1054 l 0 2153 l 1054 1054 l 1050 0 l 1054 -1054 Z M 613295 369035 l 0 -6689 l 3445 0 l 0 6689 l -3445 0 m 574 -574 l 2297 0 l 0 -5541 l -2297 0 l 0 5541 Z M 620697 363522 l -148 0 l 0 -1104 l 148 0 l 0 1104 m -2203 0 l -148 0 l 0 -1104 l 148 0 l 0 1104 Z" class="C3" /><path d="M 500000 378608 l 0 121429" class="C1" /><path d="M 595238 37 l 0 23810" class="C1" /><path d="M 578571 42894 l 8333 33333 l 8333 -33333 l 8333 33333 l 8333 -33333" class="C2" /><path d="M 636644 71484 l -2207 0 l 0 -144 l 1032 0 l 0 -6469 l -1032 0 l 0 -144 l 2207 0 l 0 144 l -1032 0 l 0 6469 l 1032 0 l 0 144 Z M 643262 71484 l -4482 0 l 0 -6685 l 148 0 l 0 6541 l 4334 0 l 0 144 Z M 649933 71358 l -108 108 l -1050 -1054 l -1072 1072 l -1157 0 l -1148 -1144 l 0 -2261 l 1148 -1148 l 404 0 l -1032 -1027 l 1207 -1202 l 1202 1202 l -1027 1027 l 404 0 l 1148 1148 l 0 2207 l 1081 1072 m -1808 -5455 l -1000 -1000 l -1000 1000 l 1000 1000 l 1000 -1000 m 579 4383 l 0 -2153 l -1054 -1054 l -498 0 l -27 27 l -27 -27 l -498 0 l -1054 1054 l 0 2153 l 1054 1054 l 1050 0 l 1054 -1054 Z M 655451 62650 l -1157 1148 l -1157 -1148 l 108 -112 l 1050 1059 l 1045 -1059 l 112 112 m 1148 7663 l -1175 1171 l -2261 0 l -1131 -1117 l 108 -108 l 1077 1081 l 2149 0 l 1032 -1027 l -4410 -4410 l 1175 -1175 l 2261 0 l 1126 1122 l -108 108 l -1077 -1086 l -2149 0 l -1027 1032 l 4410 4410 Z M 669731 71484 l -2131 0 l 0 956 l 1104 0 l 0 1252 l -1175 0 l 0 -148 l 1027 0 l 0 -956 l -1104 0 l 0 -1104 l -1054 0 l -1148 -1144 l 0 -2261 l 1148 -1148 l 3333 0 l 0 148 l -3279 0 l -1054 1054 l 0 2153 l 1054 1054 l 3279 0 l 0 144 Z M 671409 71416 l 0 -6689 l 3445 0 l 0 6689 l -3445 0 m 574 -574 l 2297 0 l 0 -5541 l -2297 0 l 0 5541 Z M 680942 68182 l -4410 0 l 0 -148 l 4410 0 l 0 148 Z M 687613 71358 l -108 108 l -1050 -1054 l -1072 1072 l -1157 0 l -1148 -1144 l 0 -2261 l 1148 -1148 l 404 0 l -1032 -1027 l 1207 -1202 l 1202 1202 l -1027 1027 l 404 0 l 1148 1148 l 0 2207 l 1081 1072 m -1808 -5455 l -1000 -1000 l -1000 1000 l 1000 1000 l 1000 -1000 m 579 4383 l 0 -2153 l -1054 -1054 l -498 0 l -27 27 l -27 -27 l -498 0 l -1054 1054 l 0 2153 l 1054 1054 l 1050 0 l 1054 -1054 Z M 689237 71416 l 0 -6689 l 3445 0 l 0 6689 l -3445 0 m 574 -574 l 2297 0 l 0 -5541 l -2297 0 l 0 5541 Z M 696640 65903 l -148 0 l 0 -1104 l 148 0 l 0 1104 m -2203 0 l -148 0 l 0 -1104 l 148 0 l 0 1104 Z" class="C3" /><path d="M 595238 80989 l 0 419048" class="C1" /><path d="M 678571 37 l 0 59524" class="C1" /><path d="M 661905 78608 l 8333 33333 l 8333 -33333 l 8333 33333 l 8333 -33333" class="C2" /><path d="M 722257 102747 l -1148 1148 l -2059 0 l 3185 3176 l -108 108 l -3279 -3284 l -1000 0 l 0 3235 l -148 0 l 0 -6689 l 3410 0 l 1148 1148 l 0 1157 m -148 -58 l 0 -1045 l -1059 -1059 l -3203 0 l 0 3163 l 3203 0 l 1059 -1059 Z M 728874 102747 l -1148 1148 l -3262 0 l 0 3235 l -148 0 l 0 -6689 l 3410 0 l 1148 1148 l 0 1157 m -148 -58 l 0 -1045 l -1059 -1059 l -3203 0 l 0 3163 l 3203 0 l 1059 -1059 Z M 735469 107072 l -108 108 l -1050 -1054 l -1072 1072 l -1157 0 l -1148 -1144 l 0 -2261 l 1148 -1148 l 404 0 l -1032 -1027 l 1207 -1202 l 1202 1202 l -1027 1027 l 404 0 l 1148 1148 l 0 2207 l 1081 1072 m -1808 -5455 l -1000 -1000 l -1000 1000 l 1000 1000 l 1000 -1000 m 579 4383 l 0 -2153 l -1054 -1054 l -498 0 l -27 27 l -27 -27 l -498 0 l -1054 1054 l 0 2153 l 1054 1054 l 1050 0 l 1054 -1054 Z M 740987 98364 l -1157 1148 l -1157 -1148 l 108 -112 l 1050 1059 l 1045 -1059 l 112 112 m 1148 7663 l -1175 1171 l -2261 0 l -1131 -1117 l 108 -108 l 1077 1081 l 2149 0 l 1032 -1027 l -4410 -4410 l 1175 -1175 l 2261 0 l 1126 1122 l -108 108 l -1077 -1086 l -2149 0 l -1027 1032 l 4410 4410 Z M 755267 107198 l -2131 0 l 0 956 l 1104 0 l 0 1252 l -1175 0 l 0 -148 l 1027 0 l 0 -956 l -1104 0 l 0 -1104 l -1054 0 l -1148 -1144 l 0 -2261 l 1148 -1148 l 3333 0 l 0 148 l -3279 0 l -1054 1054 l 0 2153 l 1054 1054 l 3279 0 l 0 144 Z M 756945 107131 l 0 -6689 l 3445 0 l 0 6689 l -3445 0 m 574 -574 l 2297 0 l 0 -5541 l -2297 0 l 0 5541 Z M 766478 103896 l -4410 0 l 0 -148 l 4410 0 l 0 148 Z M 773149 107072 l -108 108 l -1050 -1054 l -1072 1072 l -1157 0 l -1148 -1144 l 0 -2261 l 1148 -1148 l 404 0 l -1032 -1027 l 1207 -1202 l 1202 1202 l -1027 1027 l 404 0 l 1148 1148 l 0 2207 l 1081 1072 m -1808 -5455 l -1000 -1000 l -1000 1000 l 1000 1000 l 1000 -1000 m 579 4383 l 0 -2153 l -1054 -1054 l -498 0 l -27 27 l -27 -27 l -498 0 l -1054 1054 l 0 2153 l 1054 1054 l 1050 0 l 1054 -1054 Z M 774773 107131 l 0 -6689 l 3445 0 l 0 6689 l -3445 0 m 574 -574 l 2297 0 l 0 -5541 l -2297 0 l 0 5541 Z M 782176 101617 l -148 0 l 0 -1104 l 148 0 l 0 1104 m -2203 0 l -148 0 l 0 -1104 l 148 0 l 0 1104 Z" class="C3" /><path d="M 678571 116704 l 0 383333" class="C1" /><path d="M 738095 166704 l 14286 0 m 14286 0 l 14286 0 m 14286 0 l 14286 0 m 14286 0 l 14286 0 m 14286 0 l 14286 0 m 14286 0 l 0 -14286 m 0 -14286 l 0 -14286 m 0 -14286 l 0 -14286 m 0 -14286 l 0 -14286 m 0 -14286 l 0 -14286 m 0 -14286 l -14286 0 m -14286 0 l -14286 0 m -14286 0 l -14286 0 m -14286 0 l -14286 0 m -14286 0 l -14286 0 m -14286 0 l 0 14286 m 0 14286 l 0 14286 m 0 14286 l 0 14286 m 0 14286 l 0 14286 m 0 14286 l 0 14286" class="C4" /><path d="M 756987 16354 l -2759 0 l 0 1256 l 1323 1318 l 1340 0 l 0 179 l -1413 0 l -1251 -1245 l 0 1161 l -185 0 l 0 -1161 l -1284 1279 l -1469 -1464 l 0 -2826 l 1469 -1469 l 1380 1380 l 1374 -1380 l 1475 1469 l 0 1503 m -185 -179 l 0 -1256 l -1290 -1284 l -1284 1284 l 0 1256 l 2574 0 m -2759 1436 l 0 -2692 l -1284 -1284 l -1284 1284 l 0 2692 l 1284 1284 l 1284 -1284 Z M 761120 21866 l -1469 0 l 0 -185 l 1290 0 l 0 -1194 l -1380 0 l 0 -1464 l 185 0 l 0 1279 l 1374 0 l 0 1565 Z M 763128 19023 l 0 -8361 l 4307 0 l 0 8361 l -4307 0 m 718 -718 l 2871 0 l 0 -6926 l -2871 0 l 0 6926 Z M 775140 16354 l -2759 0 l 0 1256 l 1323 1318 l 1340 0 l 0 179 l -1413 0 l -1251 -1245 l 0 1161 l -185 0 l 0 -1161 l -1284 1279 l -1469 -1464 l 0 -2826 l 1469 -1469 l 1380 1380 l 1374 -1380 l 1475 1469 l 0 1503 m -185 -179 l 0 -1256 l -1290 -1284 l -1284 1284 l 0 1256 l 2574 0 m -2759 1436 l 0 -2692 l -1284 -1284 l -1284 1284 l 0 2692 l 1284 1284 l 1284 -1284 Z M 782010 8065 l -1447 1436 l -1447 -1436 l 135 -140 l 1312 1323 l 1307 -1323 l 140 140 m 1480 2596 l -5513 8266 l 5339 0 l 0 179 l -5686 0 l 5513 -8266 l -5339 0 l 0 -179 l 5686 0 Z M 790338 17643 l -1469 1464 l -1447 0 l -1413 -1396 l 135 -135 l 1346 1352 l 1312 0 l 1284 -1284 l -1284 -1290 l -1380 0 l -1469 -1469 l 1374 -1374 l -1374 -1380 l 1469 -1469 l 1447 0 l 1413 1402 l -140 135 l -1340 -1357 l -1312 0 l -1284 1290 l 1284 1284 l 1380 0 l 1469 1469 l -1380 1380 l 1380 1380 m -252 -2759 l -1284 -1284 l -1312 0 l -1284 1284 l 1284 1290 l 1312 0 l 1284 -1290 Z M 798553 18950 l -135 135 l -1312 -1318 l -1340 1340 l -1447 0 l -1436 -1430 l 0 -2826 l 1436 -1436 l 505 0 l -1290 -1284 l 1509 -1503 l 1503 1503 l -1284 1284 l 505 0 l 1436 1436 l 0 2759 l 1352 1340 m -2260 -6819 l -1251 -1251 l -1251 1251 l 1251 1251 l 1251 -1251 m 723 5479 l 0 -2692 l -1318 -1318 l -622 0 l -34 34 l -34 -34 l -622 0 l -1318 1318 l 0 2692 l 1318 1318 l 1312 0 l 1318 -1318 Z M 800583 19023 l 0 -8361 l 4307 0 l 0 8361 l -4307 0 m 718 -718 l 2871 0 l 0 -6926 l -2871 0 l 0 6926 Z M 809836 12131 l -185 0 l 0 -1380 l 185 0 l 0 1380 m -2753 0 l -185 0 l 0 -1380 l 185 0 l 0 1380 Z" class="C3" /><path d="M 750000 37 l 0 23810" class="C1" /><path d="M 750000 47656 l 23810 0" class="C1" /><path d="M 773810 47656 l 19048 19048" class="C2" /><path d="M 792857 66704 l 28571 0" class="C1" /><path d="M 821429 66704 l 0 -19048" class="C1" /><path d="M 821429 47656 l 35714 0" class="C1" /><path d="M 809524 166704 l 0 35714" class="C1" /><path d="M 707948 221358 l -108 108 l -1050 -1054 l -1072 1072 l -1157 0 l -1148 -1144 l 0 -2261 l 1148 -1148 l 404 0 l -1032 -1027 l 1207 -1202 l 1202 1202 l -1027 1027 l 404 0 l 1148 1148 l 0 2207 l 1081 1072 m -1808 -5455 l -1000 -1000 l -1000 1000 l 1000 1000 l 1000 -1000 m 579 4383 l 0 -2153 l -1054 -1054 l -498 0 l -27 27 l -27 -27 l -498 0 l -1054 1054 l 0 2153 l 1054 1054 l 1050 0 l 1054 -1054 Z M 709573 221416 l 0 -6689 l 3445 0 l 0 6689 l -3445 0 m 574 -574 l 2297 0 l 0 -5541 l -2297 0 l 0 5541 Z M 716903 215974 l -2207 0 l 0 -148 l 2207 0 l 0 148 Z M 723574 221358 l -108 108 l -1050 -1054 l -1072 1072 l -1157 0 l -1148 -1144 l 0 -2261 l 1148 -1148 l 404 0 l -1032 -1027 l 1207 -1202 l 1202 1202 l -1027 1027 l 404 0 l 1148 1148 l 0 2207 l 1081 1072 m -1808 -5455 l -1000 -1000 l -1000 1000 l 1000 1000 l 1000 -1000 m 579 4383 l 0 -2153 l -1054 -1054 l -498 0 l -27 27 l -27 -27 l -498 0 l -1054 1054 l 0 2153 l 1054 1054 l 1050 0 l 1054 -1054 Z M 729092 212650 l -1157 1148 l -1157 -1148 l 108 -112 l 1050 1059 l 1045 -1059 l 112 112 m 1148 7663 l -1175 1171 l -2261 0 l -1131 -1117 l 108 -108 l 1077 1081 l 2149 0 l 1032 -1027 l -4410 -4410 l 1175 -1175 l 2261 0 l 1126 1122 l -108 108 l -1077 -1086 l -2149 0 l -1027 1032 l 4410 4410 Z M 734624 215903 l -148 0 l 0 -1104 l 148 0 l 0 1104 m -2203 0 l -148 0 l 0 -1104 l 148 0 l 0 1104 Z M 740106 215835 l -76 130 l -2203 -1104 l 72 -126 l 2207 1099 m 1166 2270 l -1175 1175 l -3262 0 l 0 1005 l 1054 1054 l 2176 0 l 0 144 l -2230 0 l -1148 -1144 l 0 -2261 l 1148 -1148 l 2261 0 l 1175 1175 m -202 0 l -1032 -1027 l -2149 0 l -1054 1054 l 0 1005 l 3203 0 l 1032 -1032 Z M 744552 215903 l -144 0 l 0 -1104 l 144 0 l 0 1104 m 2189 4464 l -1131 1117 l -1157 0 l -1148 -1144 l 0 -1157 l 1104 -1104 l 0 -1072 l 144 0 l 0 1126 l -1099 1104 l 0 1050 l 1054 1054 l 1050 0 l 1072 -1081 l 112 108 Z M 748366 221416 l 0 -6689 l 3445 0 l 0 6689 l -3445 0 m 574 -574 l 2297 0 l 0 -5541 l -2297 0 l 0 5541 Z M 756836 215835 l -76 130 l -2203 -1104 l 72 -126 l 2207 1099 m 1166 2270 l -1175 1175 l -3262 0 l 0 1005 l 1054 1054 l 2176 0 l 0 144 l -2230 0 l -1148 -1144 l 0 -2261 l 1148 -1148 l 2261 0 l 1175 1175 m -202 0 l -1032 -1027 l -2149 0 l -1054 1054 l 0 1005 l 3203 0 l 1032 -1032 Z M 761762 218182 l -1104 0 l 0 -148 l 480 0 l 0 -3060 l -426 431 l -108 -108 l 677 -673 l 0 3410 l 480 0 l 0 148 m 3912 -3338 l -5514 6613 l -108 -90 l 5514 -6613 l 108 90 m 18 4392 l -597 597 l -1104 0 l -502 507 l 0 1000 l 2131 0 l 0 144 l -2279 0 l 0 -1198 l 597 -597 l 1104 0 l 507 -507 l 0 -498 l -507 -502 l -1050 0 l -520 534 l -112 -112 l 579 -570 l 1157 0 l 597 597 l 0 606 Z M 769483 218182 l -1104 0 l 0 -148 l 480 0 l 0 -3060 l -426 431 l -108 -108 l 677 -673 l 0 3410 l 480 0 l 0 148 m 3912 -3338 l -5514 6613 l -108 -90 l 5514 -6613 l 108 90 m 18 4392 l -597 597 l -1104 0 l -502 507 l 0 1000 l 2131 0 l 0 144 l -2279 0 l 0 -1198 l 597 -597 l 1104 0 l 507 -507 l 0 -498 l -507 -502 l -1050 0 l -520 534 l -112 -112 l 579 -570 l 1157 0 l 597 597 l 0 606 Z M 778931 215903 l -148 0 l 0 -1104 l 148 0 l 0 1104 m -3306 0 l -148 0 l 0 -1104 l 148 0 l 0 1104 m 4388 5455 l -108 108 l -1050 -1054 l -1072 1072 l -1157 0 l -1148 -1144 l 0 -2261 l 1148 -1148 l 1157 0 l 1148 1148 l 0 2207 l 1081 1072 m -1229 -1072 l 0 -2153 l -1054 -1054 l -1050 0 l -1054 1054 l 0 2153 l 1054 1054 l 1050 0 l 1054 -1054 Z M 783341 215903 l -144 0 l 0 -1104 l 144 0 l 0 1104 m 2189 4464 l -1131 1117 l -1157 0 l -1148 -1144 l 0 -1157 l 1104 -1104 l 0 -1072 l 144 0 l 0 1126 l -1099 1104 l 0 1050 l 1054 1054 l 1050 0 l 1072 -1081 l 112 108 Z M 787154 221416 l 0 -6689 l 3445 0 l 0 6689 l -3445 0 m 574 -574 l 2297 0 l 0 -5541 l -2297 0 l 0 5541 Z M 796764 219281 l -2207 0 l 0 1005 l 1059 1054 l 1072 0 l 0 144 l -1131 0 l -1000 -996 l 0 929 l -148 0 l 0 -929 l -1027 1023 l -1175 -1171 l 0 -2261 l 1175 -1175 l 1104 1104 l 1099 -1104 l 1180 1175 l 0 1202 m -148 -144 l 0 -1005 l -1032 -1027 l -1027 1027 l 0 1005 l 2059 0 m -2207 1148 l 0 -2153 l -1027 -1027 l -1027 1027 l 0 2153 l 1027 1027 l 1027 -1027 Z M 802260 212650 l -1157 1148 l -1157 -1148 l 108 -112 l 1050 1059 l 1045 -1059 l 112 112 m 1148 7663 l -1175 1171 l -2261 0 l -1131 -1117 l 108 -108 l 1077 1081 l 2149 0 l 1032 -1027 l -4410 -4410 l 1175 -1175 l 2261 0 l 1126 1122 l -108 108 l -1077 -1086 l -2149 0 l -1027 1032 l 4410 4410 Z M 804983 221416 l 0 -6689 l 3445 0 l 0 6689 l -3445 0 m 574 -574 l 2297 0 l 0 -5541 l -2297 0 l 0 5541 Z M 814516 221484 l -2131 0 l 0 956 l 1104 0 l 0 1252 l -1175 0 l 0 -148 l 1027 0 l 0 -956 l -1104 0 l 0 -1104 l -1054 0 l -1148 -1144 l 0 -2261 l 1148 -1148 l 3333 0 l 0 148 l -3279 0 l -1054 1054 l 0 2153 l 1054 1054 l 3279 0 l 0 144 Z M 821237 218105 l -2252 2261 l -112 -108 l 2162 -2153 l -2162 -2149 l 112 -108 l 2252 2257 m -2207 0 l -2252 2261 l -108 -108 l 2158 -2153 l -2158 -2149 l 108 -108 l 2252 2257 Z M 826751 220313 l -1175 1171 l -1157 0 l -1131 -1117 l 108 -108 l 1077 1081 l 1050 0 l 1027 -1027 l -1027 -1032 l -1104 0 l -1175 -1175 l 1099 -1099 l -1099 -1104 l 1175 -1175 l 1157 0 l 1131 1122 l -112 108 l -1072 -1086 l -1050 0 l -1027 1032 l 1027 1027 l 1104 0 l 1175 1175 l -1104 1104 l 1104 1104 m -202 -2207 l -1027 -1027 l -1050 0 l -1027 1027 l 1027 1032 l 1050 0 l 1027 -1032 Z M 833269 221484 l -2131 0 l 0 956 l 1104 0 l 0 1252 l -1175 0 l 0 -148 l 1027 0 l 0 -956 l -1104 0 l 0 -1104 l -1054 0 l -1148 -1144 l 0 -2261 l 1148 -1148 l 3333 0 l 0 148 l -3279 0 l -1054 1054 l 0 2153 l 1054 1054 l 3279 0 l 0 144 Z M 837747 214835 l -1104 2207 l -126 -76 l 1099 -2203 l 130 72 m -1104 0 l -1104 2207 l -126 -76 l 1104 -2203 l 126 72 Z M 844377 221416 l -148 0 l 0 -1893 l -983 1961 l -1175 0 l -1148 -1144 l 0 -2445 l -956 5729 l -148 -18 l 1104 -6608 l 144 9 l 0 3279 l 1059 1054 l 1027 0 l 1077 -2149 l 0 -2185 l 148 0 l 0 4410 Z M 850972 221358 l -108 108 l -1050 -1054 l -1072 1072 l -1157 0 l -1148 -1144 l 0 -2261 l 1148 -1148 l 404 0 l -1032 -1027 l 1207 -1202 l 1202 1202 l -1027 1027 l 404 0 l 1148 1148 l 0 2207 l 1081 1072 m -1808 -5455 l -1000 -1000 l -1000 1000 l 1000 1000 l 1000 -1000 m 579 4383 l 0 -2153 l -1054 -1054 l -498 0 l -27 27 l -27 -27 l -498 0 l -1054 1054 l 0 2153 l 1054 1054 l 1050 0 l 1054 -1054 Z M 852596 221416 l 0 -6689 l 3445 0 l 0 6689 l -3445 0 m 574 -574 l 2297 0 l 0 -5541 l -2297 0 l 0 5541 Z M 859999 215903 l -148 0 l 0 -1104 l 148 0 l 0 1104 m -2203 0 l -148 0 l 0 -1104 l 148 0 l 0 1104 Z" class="C3" /><path d="M 809524 226227 l 19048 0" class="C1" /><path d="M 828571 226227 l 14286 14286" class="C2" /><path d="M 842857 240513 l 26190 0" class="C1" /><path d="M 869048 240513 l 0 -14286" class="C1" /><path d="M 869048 226227 l 23810 0" class="C1" /><path d="M 892857 226227 l 0 83333" class="C1" /><path d="M 809524 226227 l 0 83333" class="C1" /><path d="M 797619 333370 l 23810 0" class="C2" /><path d="M 797619 347656 l 23810 0" class="C2" /><path d="M 840293 351044 l -1408 1396 l -2826 0 l -1436 -1430 l 0 -5580 l 1436 -1436 l 2826 0 l 1408 1402 l -135 135 l -1346 -1357 l -2686 0 l -1318 1323 l 0 5445 l 1318 1318 l 2686 0 l 1346 -1352 l 135 135 Z" class="C3" /><path d="M 809524 333370 l 0 -23810" class="C1" /><path d="M 809524 347656 l 0 23810" class="C1" /><path d="M 892857 37 l 0 309524" class="C1" /><path d="M 940476 404799 c 0 26299 -21320 47619 -47619 47619 c -26299 0 -47619 -21320 -47619 -47619 c 0 -26299 21320 -47619 47619 -47619 c 26299 0 47619 21320 47619 47619" class="C2" /><path d="M 879030 395187 l -264 0 l 0 -11256 l -3805 7611 l -3805 -7611 l 0 11256 l -264 0 l 0 -11817 l 280 0 l 3789 7579 l 3789 -7579 l 280 0 l 0 11817 Z" class="C3" /><path d="M 877948 433393 l -2759 0 l 0 -179 l 1290 0 l 0 -7958 l -1223 1228 l -135 -135 l 1408 -1402 l 129 0 l 0 8266 l 1290 0 l 0 179 Z M 886287 427863 l -1419 1424 l -2759 -1380 l -1335 1335 l -135 -140 l 1424 -1424 l 2753 1380 l 1335 -1335 l 135 140 Z" class="C3" /><path d="M 892857 309561 l 0 47619" class="C1" /><path d="M 809524 364323 l 83333 0" class="C1" /><path d="M 892857 364323 l 0 -7143" class="C1" /><path d="M 892857 452418 l 0 47619" class="C1" /><path d="M 892857 466704 l 0 19048" class="C2" /><path d="M 878571 485751 l 28571 0" class="C2" /><path d="M 883333 492894 l 19048 0" class="C2" /><path d="M 888095 500037 l 9524 0" class="C2" /><path d="M 892857 466704 l 0 -14286" class="C1" /><path d="M 378990 552226 l -192 192 l -1875 -1883 l -1915 1915 l -2067 0 l -2051 -2043 l 0 -4038 l 2051 -2051 l 721 0 l -1843 -1835 l 2155 -2147 l 2147 2147 l -1835 1835 l 721 0 l 2051 2051 l 0 3942 l 1931 1915 m -3229 -9742 l -1787 -1787 l -1787 1787 l 1787 1787 l 1787 -1787 m 1033 7827 l 0 -3845 l -1883 -1883 l -889 0 l -48 48 l -48 -48 l -889 0 l -1883 1883 l 0 3845 l 1883 1883 l 1875 0 l 1883 -1883 Z M 388924 546418 l -5992 6000 l -192 -192 l 5824 -5808 l -5824 -5808 l 192 -192 l 5992 6000 Z M 391744 552330 l 0 -11945 l 6153 0 l 0 11945 l -6153 0 m 1025 -1025 l 4102 0 l 0 -9894 l -4102 0 l 0 9894 Z M 404834 552450 l -3942 0 l 0 -256 l 1843 0 l 0 -11368 l -1746 1754 l -192 -192 l 2011 -2003 l 184 0 l 0 11809 l 1843 0 l 0 256 Z M 416651 548516 l -1835 0 l 0 3813 l -264 0 l 0 -3813 l -6041 0 l 6305 -8396 l 0 8139 l 1835 0 l 0 256 m -2099 -256 l 0 -7354 l -5512 7354 l 5512 0 Z M 428467 546554 l -7875 0 l 0 -264 l 7875 0 l 0 264 Z M 440420 550407 l -2051 2043 l -4038 0 l -2019 -1995 l 192 -192 l 1923 1931 l 3837 0 l 1891 -1883 l 0 -3845 l -1891 -1883 l -5984 0 l 0 -4198 l 8003 0 l 0 256 l -7739 0 l 0 3677 l 5824 0 l 2051 2051 l 0 4038 Z M 452237 550407 l -2051 2043 l -4038 0 l -2019 -1995 l 192 -192 l 1923 1931 l 3837 0 l 1891 -1883 l 0 -1875 l -1891 -1883 l -1915 0 l 0 -264 l 1915 0 l 1891 -1891 l 0 -1867 l -1891 -1891 l -3837 0 l -1923 1939 l -192 -192 l 2019 -2003 l 4038 0 l 2051 2051 l 0 2067 l -1923 1915 l 1923 1923 l 0 2067 Z M 487550 552450 l -3805 0 l 0 1706 l 1971 0 l 0 2235 l -2099 0 l 0 -264 l 1835 0 l 0 -1706 l -1971 0 l 0 -1971 l -1883 0 l -2051 -2043 l 0 -4038 l 2051 -2051 l 5952 0 l 0 264 l -5856 0 l -1883 1883 l 0 3845 l 1883 1883 l 5856 0 l 0 256 Z M 495546 540577 l -1971 3942 l -224 -136 l 1963 -3934 l 232 128 m -1971 0 l -1971 3942 l -224 -136 l 1971 -3934 l 224 128 Z M 507386 552330 l -264 0 l 0 -3381 l -1754 3501 l -2099 0 l -2051 -2043 l 0 -4366 l -1706 10230 l -264 -32 l 1971 -11801 l 256 16 l 0 5856 l 1891 1883 l 1835 0 l 1923 -3837 l 0 -3901 l 264 0 l 0 7875 Z M 519163 552226 l -192 192 l -1875 -1883 l -1915 1915 l -2067 0 l -2051 -2043 l 0 -4038 l 2051 -2051 l 721 0 l -1843 -1835 l 2155 -2147 l 2147 2147 l -1835 1835 l 721 0 l 2051 2051 l 0 3942 l 1931 1915 m -3229 -9742 l -1787 -1787 l -1787 1787 l 1787 1787 l 1787 -1787 m 1033 7827 l 0 -3845 l -1883 -1883 l -889 0 l -48 48 l -48 -48 l -889 0 l -1883 1883 l 0 3845 l 1883 1883 l 1875 0 l 1883 -1883 Z M 522063 552330 l 0 -11945 l 6153 0 l 0 11945 l -6153 0 m 1025 -1025 l 4102 0 l 0 -9894 l -4102 0 l 0 9894 Z M 535330 542484 l -2147 2147 l -2147 -2147 l 2147 -2147 l 2147 2147 m -361 0 l -1787 -1787 l -1787 1787 l 1787 1787 l 1787 -1787 Z M 546970 552450 l -3805 0 l 0 1706 l 1971 0 l 0 2235 l -2099 0 l 0 -264 l 1835 0 l 0 -1706 l -1971 0 l 0 -1971 l -1883 0 l -2051 -2043 l 0 -4038 l 2051 -2051 l 5952 0 l 0 264 l -5856 0 l -1883 1883 l 0 3845 l 1883 1883 l 5856 0 l 0 256 Z M 549966 552330 l 0 -11945 l 6153 0 l 0 11945 l -6153 0 m 1025 -1025 l 4102 0 l 0 -9894 l -4102 0 l 0 9894 Z M 566990 544583 l -3805 0 l 0 3805 l -264 0 l 0 -3805 l -3805 0 l 0 -264 l 3805 0 l 0 -3805 l 264 0 l 0 3805 l 3805 0 l 0 264 m 0 5904 l -7875 0 l 0 -264 l 7875 0 l 0 264 Z M 578807 552450 l -3805 0 l 0 1706 l 1971 0 l 0 2235 l -2099 0 l 0 -264 l 1835 0 l 0 -1706 l -1971 0 l 0 -1971 l -1883 0 l -2051 -2043 l 0 -4038 l 2051 -2051 l 5952 0 l 0 264 l -5856 0 l -1883 1883 l 0 3845 l 1883 1883 l 5856 0 l 0 256 Z M 586802 540577 l -1971 3942 l -224 -136 l 1963 -3934 l 232 128 m -1971 0 l -1971 3942 l -224 -136 l 1971 -3934 l 224 128 Z M 598643 552330 l -264 0 l 0 -3381 l -1754 3501 l -2099 0 l -2051 -2043 l 0 -4366 l -1706 10230 l -264 -32 l 1971 -11801 l 256 16 l 0 5856 l 1891 1883 l 1835 0 l 1923 -3837 l 0 -3901 l 264 0 l 0 7875 Z M 610460 548516 l -3942 0 l 0 1795 l 1891 1883 l 1915 0 l 0 256 l -2019 0 l -1787 -1779 l 0 1658 l -264 0 l 0 -1658 l -1835 1827 l -2099 -2091 l 0 -4038 l 2099 -2099 l 1971 1971 l 1963 -1971 l 2107 2099 l 0 2147 m -264 -256 l 0 -1795 l -1843 -1835 l -1835 1835 l 0 1795 l 3677 0 m -3942 2051 l 0 -3845 l -1835 -1835 l -1835 1835 l 0 3845 l 1835 1835 l 1835 -1835 Z M 618383 542484 l -2147 2147 l -2147 -2147 l 2147 -2147 l 2147 2147 m -361 0 l -1787 -1787 l -1787 1787 l 1787 1787 l 1787 -1787 Z M 626202 540577 l -1971 3942 l -224 -136 l 1963 -3934 l 232 128 m -1971 0 l -1971 3942 l -224 -136 l 1971 -3934 l 224 128 Z M 637906 552450 l -3805 0 l 0 1706 l 1971 0 l 0 2235 l -2099 0 l 0 -264 l 1835 0 l 0 -1706 l -1971 0 l 0 -1971 l -1883 0 l -2051 -2043 l 0 -4038 l 2051 -2051 l 5952 0 l 0 264 l -5856 0 l -1883 1883 l 0 3845 l 1883 1883 l 5856 0 l 0 256 Z M 645917 543517 l -1066 1066 l -2067 0 l -1066 -1066 l 0 -2067 l 1066 -1066 l 2067 0 l 1066 1066 l 0 2067 m -128 3036 l -3942 0 l 0 -264 l 3942 0 l 0 264 m -136 -3132 l 0 -1875 l -897 -905 l -1875 0 l -897 905 l 0 1875 l 897 897 l 1875 0 l 897 -897 Z M 651830 542484 l -256 0 l 0 -1971 l 256 0 l 0 1971 m 3910 7971 l -2019 1995 l -2067 0 l -2051 -2043 l 0 -2067 l 1971 -1971 l 0 -1915 l 256 0 l 0 2011 l -1963 1971 l 0 1875 l 1883 1883 l 1875 0 l 1915 -1931 l 200 192 Z M 665561 542364 l -136 232 l -3934 -1971 l 128 -224 l 3942 1963 m 2083 4054 l -2099 2099 l -5824 0 l 0 1795 l 1883 1883 l 3885 0 l 0 256 l -3982 0 l -2051 -2043 l 0 -4038 l 2051 -2051 l 4038 0 l 2099 2099 m -361 0 l -1843 -1835 l -3837 0 l -1883 1883 l 0 1795 l 5720 0 l 1843 -1843 Z M 670456 552330 l 0 -11945 l 6153 0 l 0 11945 l -6153 0 m 1025 -1025 l 4102 0 l 0 -9894 l -4102 0 l 0 9894 Z M 683546 542612 l -3942 0 l 0 -264 l 3942 0 l 0 264 Z M 695459 552226 l -192 192 l -1875 -1883 l -1915 1915 l -2067 0 l -2051 -2043 l 0 -4038 l 2051 -2051 l 721 0 l -1843 -1835 l 2155 -2147 l 2147 2147 l -1835 1835 l 721 0 l 2051 2051 l 0 3942 l 1931 1915 m -3229 -9742 l -1787 -1787 l -1787 1787 l 1787 1787 l 1787 -1787 m 1033 7827 l 0 -3845 l -1883 -1883 l -889 0 l -48 48 l -48 -48 l -889 0 l -1883 1883 l 0 3845 l 1883 1883 l 1875 0 l 1883 -1883 Z M 705393 546418 l -5992 6000 l -192 -192 l 5824 -5808 l -5824 -5808 l 192 -192 l 5992 6000 Z M 708213 552330 l 0 -11945 l 6153 0 l 0 11945 l -6153 0 m 1025 -1025 l 4102 0 l 0 -9894 l -4102 0 l 0 9894 Z" class="C3" /></g></svg>