<?xml version='1.0' encoding='utf-8'?>
<svg xmlns="http://www.w3.org/2000/svg" width="420mm" height="232mm" viewBox="0 0 1000000 552381"><defs><style>.C1 {stroke: #ffffff; stroke-width: 595; stroke-opacity: 1.000; fill: none; fill-opacity: 1.000;}</style><style>.C2 {stroke: #ff0000; stroke-width: 595; stroke-opacity: 1.000; fill: none; fill-opacity: 1.000;}</style><style>.C3 {stroke: none; stroke-width: none; stroke-opacity: 1.000; fill: #00ff00; fill-opacity: 1.000;}</style><style>.C4 {stroke: #0000ff; stroke-width: 595; stroke-opacity: 1.000; fill: none; fill-opacity: 1.000;}</style></defs><rect fill="#212830" x="0" y="0" width="1000000" height="552381" fill-opacity="1.0" /><g stroke-linecap="round" stroke-linejoin="round" fill-rule="evenodd"><path d="M 29 -0 l 999942 0" class="C1" /><path d="M 29 499971 l 999942 0" class="C1" /><path d="M 71453 252366 l 0 -28570" class="C2" /><path d="M 71453 252366 l -23808 0" class="C2" /><path d="M 71453 223797 l -23808 0" class="C2" /><path d="M 42700 196863 l -1419 1424 l -2759 -1379 l -1335 1335 l -135 -140 l 1424 -1424 l 2753 1379 l 1335 -1335 l 135 140 Z M 50999 196829 l -1436 1436 l -2759 0 l -1318 1318 l 0 2630 l 5417 0 l 0 179 l -5602 0 l 0 -2877 l 1436 -1436 l 2753 0 l 1323 -1323 l 0 -1307 l -1323 -1323 l -2686 0 l -1346 1357 l -135 -135 l 1413 -1402 l 2826 0 l 1436 1436 l 0 1447 Z M 59271 196829 l -1436 1436 l -2759 0 l -1318 1318 l 0 2630 l 5417 0 l 0 179 l -5602 0 l 0 -2877 l 1436 -1436 l 2753 0 l 1323 -1323 l 0 -1307 l -1323 -1323 l -2686 0 l -1346 1357 l -135 -135 l 1413 -1402 l 2826 0 l 1436 1436 l 0 1447 Z M 66162 200962 l -1436 1430 l -1447 0 l -1436 -1430 l 0 -5580 l 1436 -1436 l 1447 0 l 1436 1436 l 0 5580 m -185 -67 l 0 -5445 l -1318 -1323 l -1312 0 l -1318 1323 l 0 5445 l 1318 1318 l 1312 0 l 1318 -1318 Z M 77181 194081 l -4116 8226 l -202 0 l -4110 -8226 l 157 -90 l 4054 8109 l 4054 -8109 l 163 90 Z" class="C3" /><path d="M 71453 252366 l 0 -252366" class="C1" /><path d="M 71453 223797 l 0 276174" class="C1" /><path d="M 71453 514256 l 0 19047" class="C2" /><path d="M 57169 533302 l 28570 0" class="C2" /><path d="M 61930 540445 l 19047 0" class="C2" /><path d="M 66692 547587 l 9523 0" class="C2" /><path d="M 71453 514256 l 0 -14285" class="C1" /><path d="M 202398 -0 l 0 71424" class="C1" /><path d="M 202398 97613 l 0 -28570" class="C2" /><path d="M 202398 69044 l 19047 19047" class="C2" /><path d="M 167404 97552 l 0 -8361 l 4307 0 l 0 8361 l -4307 0 m 718 -718 l 2871 0 l 0 -6925 l -2871 0 l 0 6925 Z M 173146 97552 l 0 -8361 l 4307 0 l 0 8361 l -4307 0 m 718 -718 l 2871 0 l 0 -6925 l -2871 0 l 0 6925 Z M 178888 97552 l 0 -8361 l 4307 0 l 0 8361 l -4307 0 m 718 -718 l 2871 0 l 0 -6925 l -2871 0 l 0 6925 Z" class="C3" /><path d="M 202398 97613 l 0 116660" class="C1" /><path d="M 223826 249985 c 0 11834 -9593 21427 -21427 21427 c -11834 0 -21427 -9593 -21427 -21427 c 0 -11834 9593 -21427 21427 -21427 c 11834 0 21427 9593 21427 21427" class="C2" /><path d="M 187399 264985 l 29998 -29998" class="C2" /><path d="M 187399 234986 l 29998 29998" class="C2" /><path d="M 233098 273816 l -5602 0 l 0 -8445 l 5602 0 l 0 179 l -5417 0 l 0 3953 l 2664 0 l 0 185 l -2664 0 l 0 3948 l 5417 0 l 0 179 Z M 241369 273816 l -5602 0 l 0 -8355 l 185 0 l 0 8176 l 5417 0 l 0 179 Z" class="C3" /><path d="M 202398 271413 l 0 228558" class="C1" /><path d="M 309535 -0 l 0 71424" class="C1" /><path d="M 292869 90471 l 8333 33331 l 8333 -33331 l 8333 33331 l 8333 -33331" class="C2" /><path d="M 350837 117915 l -1148 1144 l -3338 0 l 0 -144 l 1032 0 l 0 -6469 l -1032 0 l 0 -144 l 3338 0 l 1148 1148 l 0 4464 m -148 -54 l 0 -4356 l -1059 -1059 l -2104 0 l 0 6469 l 2104 0 l 1059 -1054 Z M 357481 117888 l -1175 1171 l -2261 0 l -1130 -1117 l 108 -108 l 1077 1081 l 2149 0 l 1032 -1027 l -4410 -4410 l 1175 -1175 l 2261 0 l 1126 1122 l -108 108 l -1077 -1086 l -2149 0 l -1027 1032 l 4410 4410 Z M 359055 118991 l 0 -6689 l 3445 0 l 0 6689 l -3445 0 m 574 -574 l 2297 0 l 0 -5540 l -2297 0 l 0 5540 Z M 363649 118991 l 0 -6689 l 3445 0 l 0 6689 l -3445 0 m 574 -574 l 2297 0 l 0 -5540 l -2297 0 l 0 5540 Z M 368243 118991 l 0 -6689 l 3445 0 l 0 6689 l -3445 0 m 574 -574 l 2297 0 l 0 -5540 l -2297 0 l 0 5540 Z" class="C3" /><path d="M 309535 128564 l 0 14285" class="C1" /><path d="M 309535 169038 l 0 -28570" class="C2" /><path d="M 309535 140468 l 19047 19047" class="C2" /><path d="M 352268 160454 l -1469 1464 l -2826 0 l -1413 -1396 l 135 -135 l 1346 1351 l 2686 0 l 1290 -1284 l -5512 -5512 l 1469 -1469 l 2826 0 l 1408 1402 l -135 135 l -1346 -1357 l -2686 0 l -1284 1290 l 5512 5512 Z M 360505 160488 l -1436 1430 l -4172 0 l 0 -179 l 1290 0 l 0 -8086 l -1290 0 l 0 -179 l 4172 0 l 1436 1436 l 0 1447 l -1346 1340 l 1346 1346 l 0 1447 m -185 -4206 l 0 -1307 l -1323 -1323 l -2630 0 l 0 3953 l 2630 0 l 1323 -1323 m 0 4138 l 0 -1312 l -1323 -1318 l -2630 0 l 0 3948 l 2630 0 l 1323 -1318 Z M 362507 161834 l 0 -8361 l 4307 0 l 0 8361 l -4307 0 m 718 -718 l 2871 0 l 0 -6925 l -2871 0 l 0 6925 Z" class="C3" /><path d="M 309535 169038 l 0 116660" class="C1" /><path d="M 292869 304744 l 8333 33331 l 8333 -33331 l 8333 33331 l 8333 -33331" class="C2" /><path d="M 350837 332188 l -1148 1144 l -3338 0 l 0 -144 l 1032 0 l 0 -6469 l -1032 0 l 0 -144 l 3338 0 l 1148 1148 l 0 4464 m -148 -54 l 0 -4356 l -1059 -1059 l -2104 0 l 0 6469 l 2104 0 l 1059 -1054 Z M 352438 333265 l 0 -6689 l 3445 0 l 0 6689 l -3445 0 m 574 -574 l 2297 0 l 0 -5540 l -2297 0 l 0 5540 Z M 357032 333265 l 0 -6689 l 3445 0 l 0 6689 l -3445 0 m 574 -574 l 2297 0 l 0 -5540 l -2297 0 l 0 5540 Z M 361626 333265 l 0 -6689 l 3445 0 l 0 6689 l -3445 0 m 574 -574 l 2297 0 l 0 -5540 l -2297 0 l 0 5540 Z" class="C3" /><path d="M 309535 342837 l 0 157134" class="C1" /><path d="M 440480 190465 l 178561 0 l 0 -166657 l -178561 0 l 0 166657" class="C4" /><path d="M 453101 18985 l 0 -8361 l 4307 0 l 0 8361 l -4307 0 m 718 -718 l 2871 0 l 0 -6925 l -2871 0 l 0 6925 Z M 458844 18985 l 0 -8361 l 4307 0 l 0 8361 l -4307 0 m 718 -718 l 2871 0 l 0 -6925 l -2871 0 l 0 6925 Z M 464586 18985 l 0 -8361 l 4307 0 l 0 8361 l -4307 0 m 718 -718 l 2871 0 l 0 -6925 l -2871 0 l 0 6925 Z M 470328 18985 l 0 -8361 l 4307 0 l 0 8361 l -4307 0 m 718 -718 l 2871 0 l 0 -6925 l -2871 0 l 0 6925 Z M 476070 18985 l 0 -8361 l 4307 0 l 0 8361 l -4307 0 m 718 -718 l 2871 0 l 0 -6925 l -2871 0 l 0 6925 Z" class="C3" /><path d="M 464288 -0 l 0 23808" class="C1" /><path d="M 464288 35712 l 23808 0" class="C1" /><path d="M 488096 35712 l 19047 19047" class="C2" /><path d="M 507142 54759 l 28570 0" class="C1" /><path d="M 535712 54759 l 0 -19047" class="C1" /><path d="M 535712 35712 l 23808 0" class="C1" /><path d="M 464288 107137 l 23808 0" class="C1" /><path d="M 488096 107137 l 19047 19047" class="C2" /><path d="M 507142 126183 l 28570 0" class="C1" /><path d="M 535712 126183 l 0 -19047" class="C1" /><path d="M 535712 107137 l 23808 0" class="C1" /><path d="M 464288 154753 l 23808 0" class="C1" /><path d="M 488096 154753 l 19047 19047" class="C2" /><path d="M 507142 173799 l 28570 0" class="C1" /><path d="M 535712 173799 l 0 -19047" class="C1" /><path d="M 500000 190465 l 0 35712" class="C1" /><path d="M 500000 257128 l 0 -28570" class="C2" /><path d="M 500000 228558 l 19047 19047" class="C2" /><path d="M 441054 257079 l 0 -6689 l 3445 0 l 0 6689 l -3445 0 m 574 -574 l 2297 0 l 0 -5540 l -2297 0 l 0 5540 Z M 445648 257079 l 0 -6689 l 3445 0 l 0 6689 l -3445 0 m 574 -574 l 2297 0 l 0 -5540 l -2297 0 l 0 5540 Z M 450241 257079 l 0 -6689 l 3445 0 l 0 6689 l -3445 0 m 574 -574 l 2297 0 l 0 -5540 l -2297 0 l 0 5540 Z M 454835 257079 l 0 -6689 l 3445 0 l 0 6689 l -3445 0 m 574 -574 l 2297 0 l 0 -5540 l -2297 0 l 0 5540 Z M 459429 257079 l 0 -6689 l 3445 0 l 0 6689 l -3445 0 m 574 -574 l 2297 0 l 0 -5540 l -2297 0 l 0 5540 Z M 464022 257079 l 0 -6689 l 3445 0 l 0 6689 l -3445 0 m 574 -574 l 2297 0 l 0 -5540 l -2297 0 l 0 5540 Z M 468616 257079 l 0 -6689 l 3445 0 l 0 6689 l -3445 0 m 574 -574 l 2297 0 l 0 -5540 l -2297 0 l 0 5540 Z" class="C3" /><path d="M 459404 269972 l -1469 1464 l -2826 0 l -1413 -1396 l 135 -135 l 1346 1351 l 2686 0 l 1290 -1284 l -5512 -5512 l 1469 -1469 l 2826 0 l 1408 1402 l -135 135 l -1346 -1357 l -2686 0 l -1284 1290 l 5512 5512 Z M 467642 270005 l -1436 1430 l -4172 0 l 0 -179 l 1290 0 l 0 -8086 l -1290 0 l 0 -179 l 4172 0 l 1436 1436 l 0 1447 l -1346 1340 l 1346 1346 l 0 1447 m -185 -4206 l 0 -1307 l -1323 -1323 l -2630 0 l 0 3953 l 2630 0 l 1323 -1323 m 0 4138 l 0 -1312 l -1323 -1318 l -2630 0 l 0 3948 l 2630 0 l 1323 -1318 Z M 469644 271351 l 0 -8361 l 4307 0 l 0 8361 l -4307 0 m 718 -718 l 2871 0 l 0 -6925 l -2871 0 l 0 6925 Z" class="C3" /><path d="M 500000 257128 l 0 64282" class="C1" /><path d="M 483334 340456 l 8333 33331 l 8333 -33331 l 8333 33331 l 8333 -33331" class="C2" /><path d="M 536286 368977 l 0 -6689 l 3445 0 l 0 6689 l -3445 0 m 574 -574 l 2297 0 l 0 -5540 l -2297 0 l 0 5540 Z M 540880 368977 l 0 -6689 l 3445 0 l 0 6689 l -3445 0 m 574 -574 l 2297 0 l 0 -5540 l -2297 0 l 0 5540 Z M 545474 368977 l 0 -6689 l 3445 0 l 0 6689 l -3445 0 m 574 -574 l 2297 0 l 0 -5540 l -2297 0 l 0 5540 Z M 550068 368977 l 0 -6689 l 3445 0 l 0 6689 l -3445 0 m 574 -574 l 2297 0 l 0 -5540 l -2297 0 l 0 5540 Z M 554661 368977 l 0 -6689 l 3445 0 l 0 6689 l -3445 0 m 574 -574 l 2297 0 l 0 -5540 l -2297 0 l 0 5540 Z" class="C3" /><path d="M 500000 378549 l 0 121422" class="C1" /><path d="M 595233 -0 l 0 23808" class="C1" /><path d="M 578567 42855 l 8333 33331 l 8333 -33331 l 8333 33331 l 8333 -33331" class="C2" /><path d="M 634255 71442 l -2207 0 l 0 -144 l 1032 0 l 0 -6469 l -1032 0 l 0 -144 l 2207 0 l 0 144 l -1032 0 l 0 6469 l 1032 0 l 0 144 Z M 640872 71442 l -4482 0 l 0 -6684 l 148 0 l 0 6541 l 4334 0 l 0 144 Z M 642550 71375 l 0 -6689 l 3445 0 l 0 6689 l -3445 0 m 574 -574 l 2297 0 l 0 -5540 l -2297 0 l 0 5540 Z M 647144 71375 l 0 -6689 l 3445 0 l 0 6689 l -3445 0 m 574 -574 l 2297 0 l 0 -5540 l -2297 0 l 0 5540 Z M 651738 71375 l 0 -6689 l 3445 0 l 0 6689 l -3445 0 m 574 -574 l 2297 0 l 0 -5540 l -2297 0 l 0 5540 Z" class="C3" /><path d="M 595233 80948 l 0 419023" class="C1" /><path d="M 678561 -0 l 0 59520" class="C1" /><path d="M 661895 78567 l 8333 33331 l 8333 -33331 l 8333 33331 l 8333 -33331" class="C2" /><path d="M 719863 102704 l -1148 1148 l -2059 0 l 3185 3176 l -108 108 l -3279 -3284 l -1000 0 l 0 3234 l -148 0 l 0 -6689 l 3409 0 l 1148 1148 l 0 1157 m -148 -58 l 0 -1045 l -1059 -1059 l -3203 0 l 0 3163 l 3203 0 l 1059 -1059 Z M 726480 102704 l -1148 1148 l -3261 0 l 0 3234 l -148 0 l 0 -6689 l 3409 0 l 1148 1148 l 0 1157 m -148 -58 l 0 -1045 l -1059 -1059 l -3203 0 l 0 3163 l 3203 0 l 1059 -1059 Z M 728081 107087 l 0 -6689 l 3445 0 l 0 6689 l -3445 0 m 574 -574 l 2297 0 l 0 -5540 l -2297 0 l 0 5540 Z M 732675 107087 l 0 -6689 l 3445 0 l 0 6689 l -3445 0 m 574 -574 l 2297 0 l 0 -5540 l -2297 0 l 0 5540 Z M 737269 107087 l 0 -6689 l 3445 0 l 0 6689 l -3445 0 m 574 -574 l 2297 0 l 0 -5540 l -2297 0 l 0 5540 Z" class="C3" /><path d="M 678561 116660 l 0 383311" class="C1" /><path d="M 738081 166657 l 142849 0 l 0 -142849 l -142849 0 l 0 142849" class="C4" /><path d="M 750703 18985 l 0 -8361 l 4307 0 l 0 8361 l -4307 0 m 718 -718 l 2871 0 l 0 -6925 l -2871 0 l 0 6925 Z M 756445 18985 l 0 -8361 l 4307 0 l 0 8361 l -4307 0 m 718 -718 l 2871 0 l 0 -6925 l -2871 0 l 0 6925 Z M 762188 18985 l 0 -8361 l 4307 0 l 0 8361 l -4307 0 m 718 -718 l 2871 0 l 0 -6925 l -2871 0 l 0 6925 Z" class="C3" /><path d="M 749985 -0 l 0 23808" class="C1" /><path d="M 749985 47616 l 23808 0" class="C1" /><path d="M 773794 47616 l 19047 19047" class="C2" /><path d="M 792840 66663 l 28570 0" class="C1" /><path d="M 821410 66663 l 0 -19047" class="C1" /><path d="M 821410 47616 l 35712 0" class="C1" /><path d="M 809506 166657 l 0 35712" class="C1" /><path d="M 714847 221366 l 0 -6689 l 3445 0 l 0 6689 l -3445 0 m 574 -574 l 2297 0 l 0 -5540 l -2297 0 l 0 5540 Z M 719441 221366 l 0 -6689 l 3445 0 l 0 6689 l -3445 0 m 574 -574 l 2297 0 l 0 -5540 l -2297 0 l 0 5540 Z M 724035 221366 l 0 -6689 l 3445 0 l 0 6689 l -3445 0 m 574 -574 l 2297 0 l 0 -5540 l -2297 0 l 0 5540 Z M 728629 221366 l 0 -6689 l 3445 0 l 0 6689 l -3445 0 m 574 -574 l 2297 0 l 0 -5540 l -2297 0 l 0 5540 Z M 733222 221366 l 0 -6689 l 3445 0 l 0 6689 l -3445 0 m 574 -574 l 2297 0 l 0 -5540 l -2297 0 l 0 5540 Z M 737816 221366 l 0 -6689 l 3445 0 l 0 6689 l -3445 0 m 574 -574 l 2297 0 l 0 -5540 l -2297 0 l 0 5540 Z M 742410 221366 l 0 -6689 l 3445 0 l 0 6689 l -3445 0 m 574 -574 l 2297 0 l 0 -5540 l -2297 0 l 0 5540 Z M 747004 221366 l 0 -6689 l 3445 0 l 0 6689 l -3445 0 m 574 -574 l 2297 0 l 0 -5540 l -2297 0 l 0 5540 Z M 751597 221366 l 0 -6689 l 3445 0 l 0 6689 l -3445 0 m 574 -574 l 2297 0 l 0 -5540 l -2297 0 l 0 5540 Z" class="C3" /><path d="M 809506 226177 l 19047 0" class="C1" /><path d="M 828552 226177 l 14285 14285" class="C2" /><path d="M 842837 240462 l 26189 0" class="C1" /><path d="M 869026 240462 l 0 -14285" class="C1" /><path d="M 869026 226177 l 23808 0" class="C1" /><path d="M 892834 226177 l 0 83328" class="C1" /><path d="M 809506 226177 l 0 83328" class="C1" /><path d="M 797602 333314 l 23808 0" class="C2" /><path d="M 797602 347599 l 23808 0" class="C2" /><path d="M 840273 350987 l -1408 1396 l -2826 0 l -1436 -1430 l 0 -5580 l 1436 -1436 l 2826 0 l 1408 1402 l -135 135 l -1346 -1357 l -2686 0 l -1318 1323 l 0 5445 l 1318 1318 l 2686 0 l 1346 -1351 l 135 135 Z" class="C3" /><path d="M 809506 333314 l 0 -23808" class="C1" /><path d="M 809506 347599 l 0 23808" class="C1" /><path d="M 892834 -0 l 0 309506" class="C1" /><path d="M 940451 404738 c 0 26298 -21319 47616 -47616 47616 c -26298 0 -47616 -21319 -47616 -47616 c 0 -26298 21319 -47616 47616 -47616 c 26298 0 47616 21319 47616 47616" class="C2" /><path d="M 896908 392746 l -264 0 l 0 -11255 l -3805 7610 l -3805 -7610 l 0 11255 l -264 0 l 0 -11816 l 280 0 l 3789 7578 l 3789 -7578 l 280 0 l 0 11816 Z" class="C3" /><path d="M 890078 428569 l -2759 0 l 0 -179 l 1290 0 l 0 -7957 l -1222 1228 l -135 -135 l 1408 -1402 l 129 0 l 0 8266 l 1290 0 l 0 179 Z M 898417 423040 l -1419 1424 l -2759 -1379 l -1335 1335 l -135 -140 l 1424 -1424 l 2753 1379 l 1335 -1335 l 135 140 Z" class="C3" /><path d="M 892834 309506 l 0 47616" class="C1" /><path d="M 809506 309506 l 83328 0" class="C1" /><path d="M 892834 309506 l 0 47616" class="C1" /><path d="M 892834 452355 l 0 47616" class="C1" /><path d="M 892834 466640 l 0 19047" class="C2" /><path d="M 878549 485686 l 28570 0" class="C2" /><path d="M 883311 492829 l 19047 0" class="C2" /><path d="M 888073 499971 l 9523 0" class="C2" /><path d="M 892834 466640 l 0 -14285" class="C1" /><path d="M 400914 552261 l 0 -11944 l 6152 0 l 0 11944 l -6152 0 m 1025 -1025 l 4102 0 l 0 -9893 l -4102 0 l 0 9893 Z M 414004 552381 l -3941 0 l 0 -256 l 1842 0 l 0 -11367 l -1746 1754 l -192 -192 l 2011 -2003 l 184 0 l 0 11808 l 1842 0 l 0 256 Z M 425820 548448 l -1834 0 l 0 3813 l -264 0 l 0 -3813 l -6040 0 l 6305 -8395 l 0 8139 l 1834 0 l 0 256 m -2099 -256 l 0 -7354 l -5511 7354 l 5511 0 Z M 437636 546485 l -7875 0 l 0 -264 l 7875 0 l 0 264 Z M 449588 550338 l -2051 2043 l -4037 0 l -2019 -1995 l 192 -192 l 1923 1931 l 3837 0 l 1891 -1883 l 0 -3845 l -1891 -1883 l -5984 0 l 0 -4198 l 8003 0 l 0 256 l -7738 0 l 0 3677 l 5824 0 l 2051 2051 l 0 4037 Z M 461404 550338 l -2051 2043 l -4037 0 l -2019 -1995 l 192 -192 l 1923 1931 l 3837 0 l 1891 -1883 l 0 -1875 l -1891 -1883 l -1915 0 l 0 -264 l 1915 0 l 1891 -1891 l 0 -1867 l -1891 -1891 l -3837 0 l -1923 1939 l -192 -192 l 2019 -2003 l 4037 0 l 2051 2051 l 0 2067 l -1923 1915 l 1923 1923 l 0 2067 Z M 487896 552261 l 0 -11944 l 6152 0 l 0 11944 l -6152 0 m 1025 -1025 l 4102 0 l 0 -9893 l -4102 0 l 0 9893 Z M 496099 552261 l 0 -11944 l 6152 0 l 0 11944 l -6152 0 m 1025 -1025 l 4102 0 l 0 -9893 l -4102 0 l 0 9893 Z M 504302 552261 l 0 -11944 l 6152 0 l 0 11944 l -6152 0 m 1025 -1025 l 4102 0 l 0 -9893 l -4102 0 l 0 9893 Z M 512505 552261 l 0 -11944 l 6152 0 l 0 11944 l -6152 0 m 1025 -1025 l 4102 0 l 0 -9893 l -4102 0 l 0 9893 Z M 520708 552261 l 0 -11944 l 6152 0 l 0 11944 l -6152 0 m 1025 -1025 l 4102 0 l 0 -9893 l -4102 0 l 0 9893 Z M 528911 552261 l 0 -11944 l 6152 0 l 0 11944 l -6152 0 m 1025 -1025 l 4102 0 l 0 -9893 l -4102 0 l 0 9893 Z M 537114 552261 l 0 -11944 l 6152 0 l 0 11944 l -6152 0 m 1025 -1025 l 4102 0 l 0 -9893 l -4102 0 l 0 9893 Z M 545317 552261 l 0 -11944 l 6152 0 l 0 11944 l -6152 0 m 1025 -1025 l 4102 0 l 0 -9893 l -4102 0 l 0 9893 Z" class="C3" /></g></svg>